  0
SECTION
  2
HEADER
  9
$ACADVER
  1
AC1014
  9
$HANDSEED
  5
FFFF
  9
$MEASUREMENT
 70
     1
  0
ENDSEC
  0
SECTION
  2
TABLES
  0
TABLE
  2
VPORT
  5
8
330
0
100
AcDbSymbolTable
 70
     4
  0
VPORT
  5
2E
330
8
100
AcDbSymbolTableRecord
100
AcDbViewportTableRecord
  2
*ACTIVE
 70
     0
 10
0.0
 20
0.0
 11
1.0
 21
1.0
 12
210.0
 22
148.5
 13
0.0
 23
0.0
 14
10.0
 24
10.0
 15
10.0
 25
10.0
 16
0.0
 26
0.0
 36
1.0
 17
0.0
 27
0.0
 37
0.0
 40
341.0
 41
1.24
 42
50.0
 43
0.0
 44
0.0
 50
0.0
 51
0.0
 71
     0
 72
   100
 73
     1
 74
     3
 75
     0
 76
     0
 77
     0
 78
     0
  0
ENDTAB
  0
TABLE
  2
LTYPE
  5
5
330
0
100
AcDbSymbolTable
 70
     1
  0
LTYPE
  5
14
330
5
100
AcDbSymbolTableRecord
100
AcDbLinetypeTableRecord
  2
BYBLOCK
 70
     0
  3

 72
    65
 73
     0
 40
0.0
  0
LTYPE
  5
15
330
5
100
AcDbSymbolTableRecord
100
AcDbLinetypeTableRecord
  2
BYLAYER
 70
     0
  3

 72
    65
 73
     0
 40
0.0
  0
LTYPE
  5
16
330
5
100
AcDbSymbolTableRecord
100
AcDbLinetypeTableRecord
  2
CONTINUOUS
 70
     0
  3
Solid line
 72
    65
 73
     0
 40
0.0
  0
ENDTAB
  0
TABLE
  2
LAYER
  5
2
100
AcDbSymbolTable
 70
2
  0
LAYER
  5
50
100
AcDbSymbolTableRecord
100
AcDbLayerTableRecord
  2
0
 70
0
  6
CONTINUOUS
  0
LAYER
  5
51
100
AcDbSymbolTableRecord
100
AcDbLayerTableRecord
  2
Capa_1
 70
0
  6
CONTINUOUS
  0
ENDTAB
  0
TABLE
  2
STYLE
  5
3
330
0
100
AcDbSymbolTable
 70
     1
  0
STYLE
  5
11
330
3
100
AcDbSymbolTableRecord
100
AcDbTextStyleTableRecord
  2
STANDARD
 70
     0
 40
0.0
 41
1.0
 50
0.0
 71
     0
 42
2.5
  3
txt
  4

  0
ENDTAB
  0
TABLE
  2
VIEW
  5
6
330
0
100
AcDbSymbolTable
 70
     0
  0
ENDTAB
  0
TABLE
  2
UCS
  5
7
330
0
100
AcDbSymbolTable
 70
     0
  0
ENDTAB
  0
TABLE
  2
APPID
  5
9
330
0
100
AcDbSymbolTable
 70
     2
  0
APPID
  5
12
330
9
100
AcDbSymbolTableRecord
100
AcDbRegAppTableRecord
  2
ACAD
 70
     0
  0
ENDTAB
  0
TABLE
  2
DIMSTYLE
  5
A
330
0
100
AcDbSymbolTable
 70
     1
  0
DIMSTYLE
105
27
330
A
100
AcDbSymbolTableRecord
100
AcDbDimStyleTableRecord
  2
ISO-25
 70
     0
  3

  4

  5

  6

  7

 40
1.0
 41
2.5
 42
0.625
 43
3.75
 44
1.25
 45
0.0
 46
0.0
 47
0.0
 48
0.0
140
2.5
141
2.5
142
0.0
143
0.03937007874016
144
1.0
145
0.0
146
1.0
147
0.625
 71
     0
 72
     0
 73
     0
 74
     0
 75
     0
 76
     0
 77
     1
 78
     8
170
     0
171
     3
172
     1
173
     0
174
     0
175
     0
176
     0
177
     0
178
     0
270
     2
271
     2
272
     2
273
     2
274
     3
340
11
275
     0
280
     0
281
     0
282
     0
283
     0
284
     8
285
     0
286
     0
287
     3
288
     0
  0
ENDTAB
  0
TABLE
  2
BLOCK_RECORD
  5
1
330
0
100
AcDbSymbolTable
 70
     1
  0
BLOCK_RECORD
  5
1F
330
1
100
AcDbSymbolTableRecord
100
AcDbBlockTableRecord
  2
*MODEL_SPACE
  0
BLOCK_RECORD
  5
1B
330
1
100
AcDbSymbolTableRecord
100
AcDbBlockTableRecord
  2
*PAPER_SPACE
  0
ENDTAB
  0
ENDSEC
  0
SECTION
  2
BLOCKS
  0
BLOCK
  5
20
330
1F
100
AcDbEntity
  8
0
100
AcDbBlockBegin
  2
*MODEL_SPACE
 70
     0
 10
0.0
 20
0.0
 30
0.0
  3
*MODEL_SPACE
  1

  0
ENDBLK
  5
21
330
1F
100
AcDbEntity
  8
0
100
AcDbBlockEnd
  0
BLOCK
  5
1C
330
1B
100
AcDbEntity
 67
     1
  8
0
100
AcDbBlockBegin
  2
*PAPER_SPACE
  1

  0
ENDBLK
  5
1D
330
1B
100
AcDbEntity
 67
     1
  8
0
100
AcDbBlockEnd
  0
ENDSEC
  0
SECTION
  2
ENTITIES
  0
LWPOLYLINE
  5
100
100
AcDbEntity
  8
Capa_1
 62
7
100
AcDbPolyline
 90
671
 70
1
 10
48.713459
 20
99.547890
 30
0.0
 10
48.745549
 20
99.546890
 30
0.0
 10
48.777749
 20
99.544890
 30
0.0
 10
48.810049
 20
99.541890
 30
0.0
 10
48.842449
 20
99.537890
 30
0.0
 10
48.874939
 20
99.532890
 30
0.0
 10
48.907509
 20
99.526890
 30
0.0
 10
48.940159
 20
99.520890
 30
0.0
 10
48.972879
 20
99.513890
 30
0.0
 10
51.516974
 20
98.914700
 30
0.0
 10
54.061070
 20
98.315510
 30
0.0
 10
56.605165
 20
97.716330
 30
0.0
 10
59.149261
 20
97.117140
 30
0.0
 10
61.693354
 20
96.517950
 30
0.0
 10
64.237450
 20
95.918760
 30
0.0
 10
66.781546
 20
95.319570
 30
0.0
 10
69.325642
 20
94.720380
 30
0.0
 10
69.566029
 20
94.645080
 30
0.0
 10
69.763582
 20
94.542930
 30
0.0
 10
69.919052
 20
94.414560
 30
0.0
 10
70.033169
 20
94.260580
 30
0.0
 10
70.106679
 20
94.081580
 30
0.0
 10
70.140319
 20
93.878190
 30
0.0
 10
70.134819
 20
93.650990
 30
0.0
 10
70.090949
 20
93.400600
 30
0.0
 10
66.903548
 20
80.116140
 30
0.0
 10
66.857668
 20
79.704470
 30
0.0
 10
66.932238
 20
79.391230
 30
0.0
 10
67.110546
 20
79.162690
 30
0.0
 10
67.375875
 20
79.005100
 30
0.0
 10
68.225825
 20
78.799420
 30
0.0
 10
69.075770
 20
78.593750
 30
0.0
 10
69.925720
 20
78.388080
 30
0.0
 10
70.775665
 20
78.182410
 30
0.0
 10
71.243001
 20
77.964900
 30
0.0
 10
71.578138
 20
77.598640
 30
0.0
 10
71.750782
 20
77.133210
 30
0.0
 10
71.730652
 20
76.618160
 30
0.0
 10
71.591642
 20
76.043910
 30
0.0
 10
71.452630
 20
75.469650
 30
0.0
 10
71.313623
 20
74.895400
 30
0.0
 10
71.174611
 20
74.321140
 30
0.0
 10
70.957103
 20
73.853810
 30
0.0
 10
70.590851
 20
73.518680
 30
0.0
 10
70.125419
 20
73.346030
 30
0.0
 10
69.610368
 20
73.366130
 30
0.0
 10
68.008658
 20
73.753700
 30
0.0
 10
66.406947
 20
74.141270
 30
0.0
 10
66.575851
 20
73.723630
 30
0.0
 10
66.734168
 20
73.302380
 30
0.0
 10
66.881855
 20
72.877720
 30
0.0
 10
67.018880
 20
72.449860
 30
0.0
 10
67.145192
 20
72.019010
 30
0.0
 10
67.260755
 20
71.585360
 30
0.0
 10
67.365527
 20
71.149110
 30
0.0
 10
67.459467
 20
70.710470
 30
0.0
 10
67.542537
 20
70.269650
 30
0.0
 10
67.614687
 20
69.826840
 30
0.0
 10
67.675887
 20
69.382250
 30
0.0
 10
67.726097
 20
68.936080
 30
0.0
 10
67.765267
 20
68.488520
 30
0.0
 10
67.793357
 20
68.039800
 30
0.0
 10
67.810347
 20
67.590100
 30
0.0
 10
67.816147
 20
67.139630
 30
0.0
 10
67.799527
 20
66.400450
 30
0.0
 10
67.753037
 20
65.664710
 30
0.0
 10
67.676937
 20
64.933270
 30
0.0
 10
67.571482
 20
64.206980
 30
0.0
 10
67.436962
 20
63.486700
 30
0.0
 10
67.273680
 20
62.773280
 30
0.0
 10
67.081921
 20
62.067580
 30
0.0
 10
66.861975
 20
61.370450
 30
0.0
 10
66.614132
 20
60.682740
 30
0.0
 10
66.338680
 20
60.005310
 30
0.0
 10
66.035904
 20
59.339010
 30
0.0
 10
65.706098
 20
58.684690
 30
0.0
 10
65.349548
 20
58.043220
 30
0.0
 10
64.966543
 20
57.415440
 30
0.0
 10
64.557370
 20
56.802210
 30
0.0
 10
64.122318
 20
56.204380
 30
0.0
 10
64.124418
 20
56.204380
 30
0.0
 10
64.126518
 20
56.204380
 30
0.0
 10
64.128618
 20
56.204380
 30
0.0
 10
64.130718
 20
56.204380
 30
0.0
 10
64.132818
 20
56.204380
 30
0.0
 10
64.134918
 20
56.204380
 30
0.0
 10
64.137018
 20
56.204380
 30
0.0
 10
64.139118
 20
56.204380
 30
0.0
 10
64.141218
 20
56.204380
 30
0.0
 10
64.143318
 20
56.204380
 30
0.0
 10
64.145418
 20
56.204380
 30
0.0
 10
64.147518
 20
56.204380
 30
0.0
 10
64.149618
 20
56.204380
 30
0.0
 10
64.151718
 20
56.204380
 30
0.0
 10
64.153818
 20
56.204380
 30
0.0
 10
64.155918
 20
56.204380
 30
0.0
 10
64.158018
 20
56.204380
 30
0.0
 10
64.160118
 20
56.204380
 30
0.0
 10
64.162218
 20
56.204380
 30
0.0
 10
64.164318
 20
56.204380
 30
0.0
 10
64.166418
 20
56.204380
 30
0.0
 10
64.168518
 20
56.204380
 30
0.0
 10
64.170618
 20
56.204380
 30
0.0
 10
64.172718
 20
56.204380
 30
0.0
 10
64.174818
 20
56.204380
 30
0.0
 10
64.176918
 20
56.204380
 30
0.0
 10
64.179018
 20
56.204380
 30
0.0
 10
64.181118
 20
56.204380
 30
0.0
 10
64.183218
 20
56.204380
 30
0.0
 10
64.185318
 20
56.204380
 30
0.0
 10
64.187418
 20
56.204380
 30
0.0
 10
64.189518
 20
56.204380
 30
0.0
 10
64.191618
 20
56.204380
 30
0.0
 10
64.193718
 20
56.204380
 30
0.0
 10
64.195818
 20
56.204380
 30
0.0
 10
64.197918
 20
56.204380
 30
0.0
 10
64.200018
 20
56.204380
 30
0.0
 10
64.202118
 20
56.204380
 30
0.0
 10
64.204218
 20
56.204380
 30
0.0
 10
64.206318
 20
56.204380
 30
0.0
 10
64.208418
 20
56.204380
 30
0.0
 10
64.210518
 20
56.204380
 30
0.0
 10
64.212618
 20
56.204380
 30
0.0
 10
64.214718
 20
56.204380
 30
0.0
 10
64.216818
 20
56.204380
 30
0.0
 10
64.218918
 20
56.204380
 30
0.0
 10
64.221018
 20
56.204380
 30
0.0
 10
64.223118
 20
56.204380
 30
0.0
 10
64.225218
 20
56.204380
 30
0.0
 10
64.227318
 20
56.204380
 30
0.0
 10
64.229418
 20
56.204380
 30
0.0
 10
64.231518
 20
56.204380
 30
0.0
 10
64.233618
 20
56.204380
 30
0.0
 10
64.235718
 20
56.204380
 30
0.0
 10
64.237818
 20
56.204380
 30
0.0
 10
64.239918
 20
56.204380
 30
0.0
 10
64.242018
 20
56.204380
 30
0.0
 10
64.244118
 20
56.204380
 30
0.0
 10
64.246218
 20
56.204380
 30
0.0
 10
64.248318
 20
56.204380
 30
0.0
 10
64.250418
 20
56.204380
 30
0.0
 10
64.252518
 20
56.204380
 30
0.0
 10
64.254618
 20
56.204380
 30
0.0
 10
64.256718
 20
56.204380
 30
0.0
 10
64.258818
 20
56.204380
 30
0.0
 10
64.260918
 20
56.204380
 30
0.0
 10
64.263018
 20
56.204380
 30
0.0
 10
64.265118
 20
56.204380
 30
0.0
 10
64.267218
 20
56.204380
 30
0.0
 10
64.269318
 20
56.204380
 30
0.0
 10
64.271418
 20
56.204380
 30
0.0
 10
64.273518
 20
56.204380
 30
0.0
 10
64.275618
 20
56.204380
 30
0.0
 10
64.277718
 20
56.204380
 30
0.0
 10
64.279818
 20
56.204380
 30
0.0
 10
64.281918
 20
56.204380
 30
0.0
 10
64.284018
 20
56.204380
 30
0.0
 10
64.286118
 20
56.204380
 30
0.0
 10
64.288218
 20
56.204380
 30
0.0
 10
64.290318
 20
56.204380
 30
0.0
 10
64.292418
 20
56.204380
 30
0.0
 10
64.294518
 20
56.204380
 30
0.0
 10
64.296618
 20
56.204380
 30
0.0
 10
64.298718
 20
56.204380
 30
0.0
 10
64.300818
 20
56.204380
 30
0.0
 10
64.302918
 20
56.204380
 30
0.0
 10
64.305018
 20
56.204380
 30
0.0
 10
64.307118
 20
56.204380
 30
0.0
 10
64.309218
 20
56.204380
 30
0.0
 10
64.311318
 20
56.204380
 30
0.0
 10
64.313418
 20
56.204380
 30
0.0
 10
64.315518
 20
56.204380
 30
0.0
 10
64.317618
 20
56.204380
 30
0.0
 10
64.319718
 20
56.204380
 30
0.0
 10
64.321818
 20
56.204380
 30
0.0
 10
64.323918
 20
56.204380
 30
0.0
 10
64.326018
 20
56.204380
 30
0.0
 10
64.328118
 20
56.204380
 30
0.0
 10
64.330218
 20
56.204380
 30
0.0
 10
64.332318
 20
56.204380
 30
0.0
 10
64.334418
 20
56.204380
 30
0.0
 10
64.336518
 20
56.204380
 30
0.0
 10
64.338618
 20
56.204380
 30
0.0
 10
64.340718
 20
56.204380
 30
0.0
 10
64.342818
 20
56.204380
 30
0.0
 10
64.344918
 20
56.204380
 30
0.0
 10
64.347018
 20
56.204380
 30
0.0
 10
64.349118
 20
56.204380
 30
0.0
 10
64.351218
 20
56.204380
 30
0.0
 10
64.353318
 20
56.204380
 30
0.0
 10
64.355418
 20
56.204380
 30
0.0
 10
64.357518
 20
56.204380
 30
0.0
 10
64.359618
 20
56.204380
 30
0.0
 10
64.361718
 20
56.204380
 30
0.0
 10
64.363818
 20
56.204380
 30
0.0
 10
64.365918
 20
56.204380
 30
0.0
 10
64.368018
 20
56.204380
 30
0.0
 10
64.370118
 20
56.204380
 30
0.0
 10
64.372218
 20
56.204380
 30
0.0
 10
64.374318
 20
56.204380
 30
0.0
 10
64.376418
 20
56.204380
 30
0.0
 10
64.378518
 20
56.204380
 30
0.0
 10
64.380618
 20
56.204380
 30
0.0
 10
64.382718
 20
56.204380
 30
0.0
 10
64.384818
 20
56.204380
 30
0.0
 10
64.386918
 20
56.204380
 30
0.0
 10
64.389018
 20
56.204380
 30
0.0
 10
64.391118
 20
56.204380
 30
0.0
 10
64.393218
 20
56.204380
 30
0.0
 10
64.395318
 20
56.204380
 30
0.0
 10
64.397418
 20
56.204380
 30
0.0
 10
64.399518
 20
56.204380
 30
0.0
 10
64.401618
 20
56.204380
 30
0.0
 10
64.403718
 20
56.204380
 30
0.0
 10
64.405818
 20
56.204380
 30
0.0
 10
64.407918
 20
56.204380
 30
0.0
 10
64.410018
 20
56.204380
 30
0.0
 10
64.412118
 20
56.204380
 30
0.0
 10
64.414218
 20
56.204380
 30
0.0
 10
64.416318
 20
56.204380
 30
0.0
 10
64.418418
 20
56.204380
 30
0.0
 10
64.420518
 20
56.204380
 30
0.0
 10
64.422618
 20
56.204380
 30
0.0
 10
64.424718
 20
56.204380
 30
0.0
 10
64.426818
 20
56.204380
 30
0.0
 10
64.428918
 20
56.204380
 30
0.0
 10
64.431018
 20
56.204380
 30
0.0
 10
64.433118
 20
56.204380
 30
0.0
 10
64.435218
 20
56.204380
 30
0.0
 10
64.437318
 20
56.204380
 30
0.0
 10
64.439418
 20
56.204380
 30
0.0
 10
64.441518
 20
56.204380
 30
0.0
 10
64.443618
 20
56.204380
 30
0.0
 10
64.445718
 20
56.204380
 30
0.0
 10
64.447818
 20
56.204380
 30
0.0
 10
64.449918
 20
56.204380
 30
0.0
 10
64.452018
 20
56.204380
 30
0.0
 10
64.454118
 20
56.204380
 30
0.0
 10
64.456218
 20
56.204380
 30
0.0
 10
64.458318
 20
56.204380
 30
0.0
 10
64.460418
 20
56.204380
 30
0.0
 10
64.462518
 20
56.204380
 30
0.0
 10
64.464618
 20
56.204380
 30
0.0
 10
64.466718
 20
56.204380
 30
0.0
 10
64.468818
 20
56.204380
 30
0.0
 10
64.470918
 20
56.204380
 30
0.0
 10
64.473018
 20
56.204380
 30
0.0
 10
64.475118
 20
56.204380
 30
0.0
 10
64.477218
 20
56.204380
 30
0.0
 10
64.479318
 20
56.204380
 30
0.0
 10
64.481418
 20
56.204380
 30
0.0
 10
64.483518
 20
56.204380
 30
0.0
 10
64.485618
 20
56.204380
 30
0.0
 10
64.487718
 20
56.204380
 30
0.0
 10
64.489818
 20
56.204380
 30
0.0
 10
64.491918
 20
56.204380
 30
0.0
 10
64.494018
 20
56.204380
 30
0.0
 10
64.496118
 20
56.204380
 30
0.0
 10
64.498218
 20
56.204380
 30
0.0
 10
64.500318
 20
56.204380
 30
0.0
 10
64.502418
 20
56.204380
 30
0.0
 10
64.504518
 20
56.204380
 30
0.0
 10
64.506618
 20
56.204380
 30
0.0
 10
64.508718
 20
56.204380
 30
0.0
 10
64.510818
 20
56.204380
 30
0.0
 10
64.512918
 20
56.204380
 30
0.0
 10
64.515018
 20
56.204380
 30
0.0
 10
64.517118
 20
56.204380
 30
0.0
 10
64.519218
 20
56.204380
 30
0.0
 10
64.521318
 20
56.204380
 30
0.0
 10
64.523418
 20
56.204380
 30
0.0
 10
64.525518
 20
56.204380
 30
0.0
 10
64.527618
 20
56.204380
 30
0.0
 10
64.529718
 20
56.204380
 30
0.0
 10
64.531818
 20
56.204380
 30
0.0
 10
64.533918
 20
56.204380
 30
0.0
 10
64.536018
 20
56.204380
 30
0.0
 10
64.538118
 20
56.204380
 30
0.0
 10
64.540218
 20
56.204380
 30
0.0
 10
64.542318
 20
56.204380
 30
0.0
 10
64.544418
 20
56.204380
 30
0.0
 10
64.546518
 20
56.204380
 30
0.0
 10
64.548618
 20
56.204380
 30
0.0
 10
64.550718
 20
56.204380
 30
0.0
 10
64.552818
 20
56.204380
 30
0.0
 10
64.554918
 20
56.204380
 30
0.0
 10
64.557018
 20
56.204380
 30
0.0
 10
64.559118
 20
56.204380
 30
0.0
 10
64.561218
 20
56.204380
 30
0.0
 10
64.563318
 20
56.204380
 30
0.0
 10
64.565418
 20
56.204380
 30
0.0
 10
64.567518
 20
56.204380
 30
0.0
 10
64.569618
 20
56.204380
 30
0.0
 10
64.571718
 20
56.204380
 30
0.0
 10
64.573818
 20
56.204380
 30
0.0
 10
64.575918
 20
56.204380
 30
0.0
 10
64.578018
 20
56.204380
 30
0.0
 10
64.580118
 20
56.204380
 30
0.0
 10
64.582218
 20
56.204380
 30
0.0
 10
64.584318
 20
56.204380
 30
0.0
 10
64.586418
 20
56.204380
 30
0.0
 10
64.588518
 20
56.204380
 30
0.0
 10
64.590618
 20
56.204380
 30
0.0
 10
64.592718
 20
56.204380
 30
0.0
 10
64.594818
 20
56.204380
 30
0.0
 10
64.596918
 20
56.204380
 30
0.0
 10
64.599018
 20
56.204380
 30
0.0
 10
64.601118
 20
56.204380
 30
0.0
 10
64.603218
 20
56.204380
 30
0.0
 10
64.605318
 20
56.204380
 30
0.0
 10
64.607418
 20
56.204380
 30
0.0
 10
64.609518
 20
56.204380
 30
0.0
 10
64.611618
 20
56.204380
 30
0.0
 10
64.613718
 20
56.204380
 30
0.0
 10
64.615818
 20
56.204380
 30
0.0
 10
64.617918
 20
56.204380
 30
0.0
 10
64.620018
 20
56.204380
 30
0.0
 10
64.622118
 20
56.204380
 30
0.0
 10
64.624218
 20
56.204380
 30
0.0
 10
64.626318
 20
56.204380
 30
0.0
 10
64.628418
 20
56.204380
 30
0.0
 10
64.630518
 20
56.204380
 30
0.0
 10
64.632618
 20
56.204380
 30
0.0
 10
64.634718
 20
56.204380
 30
0.0
 10
64.636818
 20
56.204380
 30
0.0
 10
64.638918
 20
56.204380
 30
0.0
 10
64.641018
 20
56.204380
 30
0.0
 10
64.643118
 20
56.204380
 30
0.0
 10
64.645218
 20
56.204380
 30
0.0
 10
64.647318
 20
56.204380
 30
0.0
 10
64.649418
 20
56.204380
 30
0.0
 10
64.651518
 20
56.204380
 30
0.0
 10
64.653618
 20
56.204380
 30
0.0
 10
64.655718
 20
56.204380
 30
0.0
 10
64.657818
 20
56.204380
 30
0.0
 10
64.659918
 20
56.204380
 30
0.0
 10
64.786923
 20
56.189880
 30
0.0
 10
64.910176
 20
56.147380
 30
0.0
 10
65.029067
 20
56.078180
 30
0.0
 10
65.142981
 20
55.983780
 30
0.0
 10
65.251304
 20
55.865520
 30
0.0
 10
65.353428
 20
55.724800
 30
0.0
 10
65.448728
 20
55.563020
 30
0.0
 10
65.536608
 20
55.381560
 30
0.0
 10
65.616448
 20
55.181830
 30
0.0
 10
65.687628
 20
54.965210
 30
0.0
 10
65.749538
 20
54.733100
 30
0.0
 10
65.801568
 20
54.486900
 30
0.0
 10
65.843098
 20
54.228000
 30
0.0
 10
65.873528
 20
53.957790
 30
0.0
 10
65.892238
 20
53.677660
 30
0.0
 10
65.898638
 20
53.389010
 30
0.0
 10
65.898638
 20
53.199010
 30
0.0
 10
65.898638
 20
53.008990
 30
0.0
 10
65.898638
 20
52.818990
 30
0.0
 10
65.898638
 20
52.628980
 30
0.0
 10
65.898638
 20
52.438970
 30
0.0
 10
65.898638
 20
52.248970
 30
0.0
 10
65.898638
 20
52.058960
 30
0.0
 10
65.898638
 20
51.868950
 30
0.0
 10
65.898638
 20
51.678940
 30
0.0
 10
65.898638
 20
51.488930
 30
0.0
 10
65.898638
 20
51.298920
 30
0.0
 10
65.898638
 20
51.108920
 30
0.0
 10
65.898638
 20
50.918910
 30
0.0
 10
65.898638
 20
50.728900
 30
0.0
 10
65.898638
 20
50.538890
 30
0.0
 10
65.898638
 20
50.348890
 30
0.0
 10
65.896738
 20
50.190040
 30
0.0
 10
65.891038
 20
50.033580
 30
0.0
 10
65.881638
 20
49.879750
 30
0.0
 10
65.868618
 20
49.728760
 30
0.0
 10
65.852138
 20
49.580840
 30
0.0
 10
65.832268
 20
49.436210
 30
0.0
 10
65.809118
 20
49.295090
 30
0.0
 10
65.782788
 20
49.157700
 30
0.0
 10
65.753398
 20
49.024270
 30
0.0
 10
65.721038
 20
48.895020
 30
0.0
 10
65.685808
 20
48.770180
 30
0.0
 10
65.647818
 20
48.649960
 30
0.0
 10
65.607168
 20
48.534600
 30
0.0
 10
65.563968
 20
48.424300
 30
0.0
 10
65.518308
 20
48.319300
 30
0.0
 10
65.470308
 20
48.219800
 30
0.0
 10
65.509968
 20
48.190200
 30
0.0
 10
65.549628
 20
48.160600
 30
0.0
 10
65.589288
 20
48.131000
 30
0.0
 10
65.628948
 20
48.101400
 30
0.0
 10
65.668608
 20
48.071800
 30
0.0
 10
65.708268
 20
48.042200
 30
0.0
 10
65.747928
 20
48.012600
 30
0.0
 10
65.787588
 20
47.983000
 30
0.0
 10
65.827248
 20
47.953400
 30
0.0
 10
65.866908
 20
47.923800
 30
0.0
 10
65.906568
 20
47.894200
 30
0.0
 10
65.946228
 20
47.864600
 30
0.0
 10
65.985888
 20
47.835000
 30
0.0
 10
66.025548
 20
47.805400
 30
0.0
 10
66.065208
 20
47.775800
 30
0.0
 10
66.104868
 20
47.746200
 30
0.0
 10
66.722852
 20
47.255760
 30
0.0
 10
67.324028
 20
46.748730
 30
0.0
 10
67.908159
 20
46.225570
 30
0.0
 10
68.475019
 20
45.686720
 30
0.0
 10
69.024370
 20
45.132640
 30
0.0
 10
69.555984
 20
44.563790
 30
0.0
 10
70.069631
 20
43.980600
 30
0.0
 10
70.565079
 20
43.383530
 30
0.0
 10
71.042096
 20
42.773040
 30
0.0
 10
71.500450
 20
42.149570
 30
0.0
 10
71.939912
 20
41.513590
 30
0.0
 10
72.360250
 20
40.865530
 30
0.0
 10
72.761234
 20
40.205850
 30
0.0
 10
73.142628
 20
39.535000
 30
0.0
 10
73.504208
 20
38.853440
 30
0.0
 10
73.845735
 20
38.161620
 30
0.0
 10
74.166984
 20
37.459980
 30
0.0
 10
74.467723
 20
36.748980
 30
0.0
 10
74.747715
 20
36.029070
 30
0.0
 10
75.006737
 20
35.300710
 30
0.0
 10
75.244552
 20
34.564340
 30
0.0
 10
75.460931
 20
33.820410
 30
0.0
 10
75.655641
 20
33.069380
 30
0.0
 10
75.828453
 20
32.311700
 30
0.0
 10
75.979136
 20
31.547830
 30
0.0
 10
76.107457
 20
30.778200
 30
0.0
 10
76.213187
 20
30.003280
 30
0.0
 10
76.296087
 20
29.223510
 30
0.0
 10
76.355937
 20
28.439350
 30
0.0
 10
76.392497
 20
27.651250
 30
0.0
 10
76.405537
 20
26.859660
 30
0.0
 10
76.371177
 20
25.500730
 30
0.0
 10
76.269202
 20
24.159630
 30
0.0
 10
76.101265
 20
22.838030
 30
0.0
 10
75.869033
 20
21.537590
 30
0.0
 10
75.574160
 20
20.259960
 30
0.0
 10
75.218306
 20
19.006820
 30
0.0
 10
74.803135
 20
17.779810
 30
0.0
 10
74.330298
 20
16.580590
 30
0.0
 10
73.801462
 20
15.410830
 30
0.0
 10
73.218281
 20
14.272180
 30
0.0
 10
72.582415
 20
13.166310
 30
0.0
 10
71.895528
 20
12.094860
 30
0.0
 10
71.159275
 20
11.059510
 30
0.0
 10
70.375314
 20
10.061910
 30
0.0
 10
69.545306
 20
9.103720
 30
0.0
 10
68.670913
 20
8.186600
 30
0.0
 10
67.753791
 20
7.312200
 30
0.0
 10
66.795600
 20
6.482200
 30
0.0
 10
65.797996
 20
5.698230
 30
0.0
 10
64.762644
 20
4.961980
 30
0.0
 10
63.691201
 20
4.275090
 30
0.0
 10
62.585327
 20
3.639230
 30
0.0
 10
61.446680
 20
3.056050
 30
0.0
 10
60.276917
 20
2.527210
 30
0.0
 10
59.077701
 20
2.054380
 30
0.0
 10
57.850691
 20
1.639200
 30
0.0
 10
56.597545
 20
1.283350
 30
0.0
 10
55.319919
 20
0.988480
 30
0.0
 10
54.019479
 20
0.756240
 30
0.0
 10
52.697880
 20
0.588310
 30
0.0
 10
51.356784
 20
0.486330
 30
0.0
 10
49.997847
 20
0.451930
 30
0.0
 10
48.638909
 20
0.486330
 30
0.0
 10
47.302115
 20
0.588360
 30
0.0
 10
45.980516
 20
0.756290
 30
0.0
 10
44.680075
 20
0.988520
 30
0.0
 10
43.402449
 20
1.283400
 30
0.0
 10
42.149303
 20
1.639250
 30
0.0
 10
40.922293
 20
2.054420
 30
0.0
 10
39.723077
 20
2.527260
 30
0.0
 10
38.553314
 20
3.056100
 30
0.0
 10
37.414667
 20
3.639280
 30
0.0
 10
36.308793
 20
4.275140
 30
0.0
 10
35.237350
 20
4.962030
 30
0.0
 10
34.201998
 20
5.698280
 30
0.0
 10
33.204394
 20
6.482240
 30
0.0
 10
32.246203
 20
7.312250
 30
0.0
 10
31.329081
 20
8.186640
 30
0.0
 10
30.454688
 20
9.103770
 30
0.0
 10
29.624680
 20
10.061960
 30
0.0
 10
28.840720
 20
11.059560
 30
0.0
 10
28.104466
 20
12.094910
 30
0.0
 10
27.417579
 20
13.166360
 30
0.0
 10
26.781714
 20
14.272230
 30
0.0
 10
26.198535
 20
15.410880
 30
0.0
 10
25.669696
 20
16.580640
 30
0.0
 10
25.196862
 20
17.779860
 30
0.0
 10
24.781688
 20
19.006870
 30
0.0
 10
24.425834
 20
20.260010
 30
0.0
 10
24.130962
 20
21.537640
 30
0.0
 10
23.898729
 20
22.838080
 30
0.0
 10
23.730795
 20
24.159680
 30
0.0
 10
23.628817
 20
25.500770
 30
0.0
 10
23.594457
 20
26.859710
 30
0.0
 10
23.607107
 20
27.720180
 30
0.0
 10
23.642577
 20
28.569300
 30
0.0
 10
23.700847
 20
29.407020
 30
0.0
 10
23.781927
 20
30.233250
 30
0.0
 10
23.885795
 20
31.047920
 30
0.0
 10
24.012451
 20
31.850960
 30
0.0
 10
24.161890
 20
32.642300
 30
0.0
 10
24.334105
 20
33.421870
 30
0.0
 10
24.529089
 20
34.189590
 30
0.0
 10
24.746839
 20
34.945400
 30
0.0
 10
24.987345
 20
35.689210
 30
0.0
 10
25.250606
 20
36.420970
 30
0.0
 10
25.536610
 20
37.140600
 30
0.0
 10
25.845352
 20
37.848020
 30
0.0
 10
26.176830
 20
38.543170
 30
0.0
 10
26.531035
 20
39.225960
 30
0.0
 10
26.907963
 20
39.896350
 30
0.0
 10
27.307606
 20
40.554230
 30
0.0
 10
27.729960
 20
41.199560
 30
0.0
 10
28.175016
 20
41.832250
 30
0.0
 10
28.642768
 20
42.452240
 30
0.0
 10
29.133215
 20
43.059440
 30
0.0
 10
29.646345
 20
43.653790
 30
0.0
 10
30.182153
 20
44.235230
 30
0.0
 10
30.740638
 20
44.803670
 30
0.0
 10
31.321788
 20
45.359040
 30
0.0
 10
31.925602
 20
45.901280
 30
0.0
 10
32.552068
 20
46.430300
 30
0.0
 10
33.201184
 20
46.946040
 30
0.0
 10
33.872942
 20
47.448430
 30
0.0
 10
34.567339
 20
47.937400
 30
0.0
 10
35.284367
 20
48.412870
 30
0.0
 10
35.321647
 20
48.444970
 30
0.0
 10
35.343347
 20
48.481170
 30
0.0
 10
35.351147
 20
48.522370
 30
0.0
 10
35.346747
 20
48.569370
 30
0.0
 10
35.331907
 20
48.622970
 30
0.0
 10
35.308277
 20
48.683970
 30
0.0
 10
35.277557
 20
48.753170
 30
0.0
 10
35.241437
 20
48.831370
 30
0.0
 10
35.201617
 20
48.919470
 30
0.0
 10
35.159787
 20
49.018170
 30
0.0
 10
35.117647
 20
49.128380
 30
0.0
 10
35.076897
 20
49.250880
 30
0.0
 10
35.039227
 20
49.386470
 30
0.0
 10
35.006327
 20
49.535980
 30
0.0
 10
34.979897
 20
49.700220
 30
0.0
 10
34.961637
 20
49.879990
 30
0.0
 10
34.951367
 20
50.030460
 30
0.0
 10
34.943767
 20
50.160060
 30
0.0
 10
34.938667
 20
50.277240
 30
0.0
 10
34.935767
 20
50.390440
 30
0.0
 10
34.934667
 20
50.508100
 30
0.0
 10
34.935460
 20
50.638660
 30
0.0
 10
34.937560
 20
50.790590
 30
0.0
 10
34.940960
 20
50.972310
 30
0.0
 10
34.945360
 20
51.192280
 30
0.0
 10
34.950560
 20
51.458940
 30
0.0
 10
34.956260
 20
51.780730
 30
0.0
 10
34.962260
 20
52.166110
 30
0.0
 10
34.968360
 20
52.623510
 30
0.0
 10
34.974160
 20
53.161390
 30
0.0
 10
34.979560
 20
53.788180
 30
0.0
 10
34.984260
 20
54.512340
 30
0.0
 10
34.987160
 20
54.724540
 30
0.0
 10
34.993260
 20
54.911310
 30
0.0
 10
35.002560
 20
55.075550
 30
0.0
 10
35.015080
 20
55.220140
 30
0.0
 10
35.030740
 20
55.348010
 30
0.0
 10
35.049530
 20
55.462030
 30
0.0
 10
35.071410
 20
55.565120
 30
0.0
 10
35.096360
 20
55.660120
 30
0.0
 10
35.124350
 20
55.750020
 30
0.0
 10
35.155350
 20
55.837720
 30
0.0
 10
35.189320
 20
55.926020
 30
0.0
 10
35.226240
 20
56.017920
 30
0.0
 10
35.266080
 20
56.116320
 30
0.0
 10
35.308810
 20
56.224040
 30
0.0
 10
35.354400
 20
56.344020
 30
0.0
 10
35.402830
 20
56.479160
 30
0.0
 10
35.113929
 20
56.792260
 30
0.0
 10
34.838987
 20
57.101910
 30
0.0
 10
34.577690
 20
57.408590
 30
0.0
 10
34.329717
 20
57.712760
 30
0.0
 10
34.094762
 20
58.014900
 30
0.0
 10
33.872504
 20
58.315500
 30
0.0
 10
33.662629
 20
58.615010
 30
0.0
 10
33.464824
 20
58.913920
 30
0.0
 10
33.278771
 20
59.212700
 30
0.0
 10
33.104159
 20
59.511820
 30
0.0
 10
32.940673
 20
59.811760
 30
0.0
 10
32.787996
 20
60.112990
 30
0.0
 10
32.645811
 20
60.415990
 30
0.0
 10
32.513811
 20
60.721240
 30
0.0
 10
32.391671
 20
61.029190
 30
0.0
 10
32.279085
 20
61.340340
 30
0.0
 10
32.175734
 20
61.655150
 30
0.0
 10
32.081304
 20
61.974100
 30
0.0
 10
31.995484
 20
62.297660
 30
0.0
 10
31.917954
 20
62.626300
 30
0.0
 10
31.848394
 20
62.960510
 30
0.0
 10
31.786494
 20
63.300760
 30
0.0
 10
31.731944
 20
63.647510
 30
0.0
 10
31.684424
 20
64.001250
 30
0.0
 10
31.643624
 20
64.362440
 30
0.0
 10
31.609224
 20
64.731570
 30
0.0
 10
31.580914
 20
65.109100
 30
0.0
 10
31.558374
 20
65.495520
 30
0.0
 10
31.541284
 20
65.891290
 30
0.0
 10
31.529354
 20
66.296890
 30
0.0
 10
31.522254
 20
66.712790
 30
0.0
 10
31.519654
 20
67.139470
 30
0.0
 10
31.526554
 20
67.640390
 30
0.0
 10
31.547194
 20
68.139470
 30
0.0
 10
31.581434
 20
68.636440
 30
0.0
 10
31.629184
 20
69.131080
 30
0.0
 10
31.690314
 20
69.623110
 30
0.0
 10
31.764714
 20
70.112310
 30
0.0
 10
31.852264
 20
70.598400
 30
0.0
 10
31.952848
 20
71.081170
 30
0.0
 10
32.066349
 20
71.560330
 30
0.0
 10
32.192658
 20
72.035660
 30
0.0
 10
32.331652
 20
72.506910
 30
0.0
 10
32.483221
 20
72.973810
 30
0.0
 10
32.647247
 20
73.436130
 30
0.0
 10
32.823612
 20
73.893620
 30
0.0
 10
33.012205
 20
74.346020
 30
0.0
 10
33.212907
 20
74.793100
 30
0.0
 10
33.425603
 20
75.234590
 30
0.0
 10
33.650180
 20
75.670250
 30
0.0
 10
33.886515
 20
76.099840
 30
0.0
 10
34.134499
 20
76.523100
 30
0.0
 10
34.394015
 20
76.939790
 30
0.0
 10
34.664946
 20
77.349650
 30
0.0
 10
34.947177
 20
77.752440
 30
0.0
 10
35.240589
 20
78.147900
 30
0.0
 10
35.545072
 20
78.535800
 30
0.0
 10
35.860508
 20
78.915880
 30
0.0
 10
36.186779
 20
79.287890
 30
0.0
 10
36.523772
 20
79.651580
 30
0.0
 10
36.871371
 20
80.006710
 30
0.0
 10
37.229458
 20
80.353020
 30
0.0
 10
37.597918
 20
80.690270
 30
0.0
 10
37.976637
 20
81.018210
 30
0.0
 10
37.756496
 20
81.071410
 30
0.0
 10
37.536355
 20
81.124610
 30
0.0
 10
37.316214
 20
81.177810
 30
0.0
 10
37.096072
 20
81.231010
 30
0.0
 10
36.628736
 20
81.448520
 30
0.0
 10
36.293603
 20
81.814770
 30
0.0
 10
36.120958
 20
82.280200
 30
0.0
 10
36.141088
 20
82.795250
 30
0.0
 10
36.280063
 20
83.369380
 30
0.0
 10
36.419038
 20
83.943500
 30
0.0
 10
36.558016
 20
84.517630
 30
0.0
 10
36.696991
 20
85.091750
 30
0.0
 10
36.915002
 20
85.561070
 30
0.0
 10
37.282088
 20
85.899500
 30
0.0
 10
37.747686
 20
86.072800
 30
0.0
 10
38.261237
 20
86.046700
 30
0.0
 10
40.906631
 20
85.328460
 30
0.0
 10
42.213784
 20
84.948590
 30
0.0
 10
42.707898
 20
84.811330
 30
0.0
 10
42.914183
 20
84.821330
 30
0.0
 10
43.161913
 20
84.921800
 30
0.0
 10
43.412934
 20
85.128160
 30
0.0
 10
43.641309
 20
85.451250
 30
0.0
 10
43.821104
 20
85.901890
 30
0.0
 10
47.414672
 20
98.549680
 30
0.0
 10
47.495142
 20
98.766800
 30
0.0
 10
47.605788
 20
98.963030
 30
0.0
 10
47.743215
 20
99.135640
 30
0.0
 10
47.904032
 20
99.281870
 30
0.0
 10
48.084840
 20
99.398980
 30
0.0
 10
48.282251
 20
99.484180
 30
0.0
 10
48.492870
 20
99.534780
 30
0.0
  0
ENDSEC
  0
SECTION
  2
OBJECTS
  0
DICTIONARY
  5
C
330
0
100
AcDbDictionary
  3
ACAD_GROUP
350
D
  3
ACAD_MLINESTYLE
350
17
  0
DICTIONARY
  5
D
330
C
100
AcDbDictionary
  0
DICTIONARY
  5
1A
330
C
100
AcDbDictionary
  0
DICTIONARY
  5
17
330
C
100
AcDbDictionary
  3
STANDARD
350
18
  0
DICTIONARY
  5
19
330
C
100
AcDbDictionary
  0
ENDSEC
  0
EOF
