G04 #@! TF.GenerationSoftware,KiCad,Pcbnew,(5.0.1)-4*
G04 #@! TF.CreationDate,2019-03-02T12:17:37+01:00*
G04 #@! TF.ProjectId,Simple_Christamas_Ornament,53696D706C655F436872697374616D61,rev?*
G04 #@! TF.SameCoordinates,Original*
G04 #@! TF.FileFunction,Legend,Top*
G04 #@! TF.FilePolarity,Positive*
%FSLAX46Y46*%
G04 Gerber Fmt 4.6, Leading zero omitted, Abs format (unit mm)*
G04 Created by KiCad (PCBNEW (5.0.1)-4) date 02/03/2019 12:17:37*
%MOMM*%
%LPD*%
G01*
G04 APERTURE LIST*
%ADD10C,0.120000*%
%ADD11C,0.150000*%
%ADD12C,0.100000*%
G04 APERTURE END LIST*
D10*
G04 #@! TO.C,D1*
X126611748Y-103506200D02*
X127134252Y-103506200D01*
X126611748Y-104926200D02*
X127134252Y-104926200D01*
D11*
G04 #@! TO.C,U2*
X151499200Y-107982200D02*
X151704200Y-107982200D01*
X151499200Y-102482200D02*
X151799200Y-102482200D01*
X157009200Y-102482200D02*
X156709200Y-102482200D01*
X157009200Y-107982200D02*
X156709200Y-107982200D01*
X151499200Y-107982200D02*
X151499200Y-102482200D01*
X157009200Y-107982200D02*
X157009200Y-102482200D01*
X151704200Y-107982200D02*
X151704200Y-109732200D01*
G04 #@! TO.C,BT1*
X136366851Y-68884800D02*
G75*
G03X136366851Y-68884800I-1796051J0D01*
G01*
X135840800Y-68884800D02*
X133300800Y-68884800D01*
X134570800Y-67614800D02*
X134570800Y-70154800D01*
X136366851Y-131114800D02*
G75*
G03X136366851Y-131114800I-1796051J0D01*
G01*
X134570800Y-129844800D02*
X134570800Y-132384800D01*
X146000800Y-72694800D02*
X133300800Y-72694800D01*
X133300800Y-72694800D02*
X133300800Y-127050800D01*
X146000800Y-72694800D02*
X146000800Y-127050800D01*
X133300800Y-127050800D02*
X146000800Y-127050800D01*
D12*
G04 #@! TO.C,BZ1*
X155470600Y-131568600D02*
X154470600Y-131568600D01*
X154970600Y-132568600D02*
X154470600Y-131568600D01*
X155470600Y-131568600D02*
X154970600Y-132568600D01*
X157620600Y-131268600D02*
X157720600Y-131268600D01*
X157720600Y-131268600D02*
X159320600Y-129668600D01*
X159320600Y-129668600D02*
X159320600Y-124568600D01*
X150620600Y-124568600D02*
X150620600Y-129268600D01*
X157320600Y-122568600D02*
X152620600Y-122568600D01*
X157620600Y-131268600D02*
X152620600Y-131268600D01*
D10*
G04 #@! TO.C,C1*
X128288200Y-110253200D02*
X121353200Y-110253200D01*
X121353200Y-110253200D02*
X121353200Y-113673200D01*
X121353200Y-113673200D02*
X128288200Y-113673200D01*
G04 #@! TO.C,D5*
X159340000Y-121842800D02*
X159340000Y-118542800D01*
X159340000Y-118542800D02*
X152440000Y-118542800D01*
X159340000Y-121842800D02*
X152440000Y-121842800D01*
G04 #@! TO.C,J1*
X136312600Y-55533600D02*
X136312600Y-50333600D01*
X144052600Y-55533600D02*
X144052600Y-50333600D01*
X136882600Y-56973600D02*
X136882600Y-55533600D01*
X136312600Y-55533600D02*
X136882600Y-55533600D01*
X136312600Y-50333600D02*
X136882600Y-50333600D01*
X143482600Y-55533600D02*
X144052600Y-55533600D01*
X143482600Y-50333600D02*
X144052600Y-50333600D01*
X138402600Y-55533600D02*
X139422600Y-55533600D01*
X138402600Y-50333600D02*
X139422600Y-50333600D01*
X140942600Y-55533600D02*
X141962600Y-55533600D01*
X140942600Y-50333600D02*
X141962600Y-50333600D01*
D11*
G04 #@! TO.C,L2*
X127436000Y-97476000D02*
X124896000Y-97476000D01*
X127436000Y-102676000D02*
X124896000Y-102676000D01*
X124899061Y-102677493D02*
G75*
G02X124896001Y-97476000I1266939J2601493D01*
G01*
X127522958Y-97520308D02*
G75*
G02X127435999Y-102676000I-1356958J-2555692D01*
G01*
D10*
G04 #@! TO.C,R1*
X127694948Y-131801800D02*
X128217452Y-131801800D01*
X127694948Y-133221800D02*
X128217452Y-133221800D01*
G04 #@! TO.C,R3*
X155068200Y-115593652D02*
X155068200Y-115071148D01*
X156488200Y-115593652D02*
X156488200Y-115071148D01*
G04 #@! TO.C,TP2*
X123175800Y-118730800D02*
X124575800Y-118730800D01*
X124575800Y-118730800D02*
X124575800Y-120130800D01*
X124575800Y-120130800D02*
X123175800Y-120130800D01*
X123175800Y-120130800D02*
X123175800Y-118730800D01*
G04 #@! TO.C,TP3*
X121016800Y-103592400D02*
X122416800Y-103592400D01*
X122416800Y-103592400D02*
X122416800Y-104992400D01*
X122416800Y-104992400D02*
X121016800Y-104992400D01*
X121016800Y-104992400D02*
X121016800Y-103592400D01*
G04 #@! TO.C,TP5*
X123226600Y-122594600D02*
X123226600Y-121194600D01*
X124626600Y-122594600D02*
X123226600Y-122594600D01*
X124626600Y-121194600D02*
X124626600Y-122594600D01*
X123226600Y-121194600D02*
X124626600Y-121194600D01*
G04 #@! TO.C,JP1*
X147445252Y-135533200D02*
X146922748Y-135533200D01*
X147445252Y-134113200D02*
X146922748Y-134113200D01*
G04 #@! TO.C,C2*
X150722400Y-104141748D02*
X150722400Y-104664252D01*
X149302400Y-104141748D02*
X149302400Y-104664252D01*
G04 #@! TO.C,Q1*
X124458000Y-128808600D02*
X122998000Y-128808600D01*
X124458000Y-125648600D02*
X121298000Y-125648600D01*
X124458000Y-125648600D02*
X124458000Y-126578600D01*
X124458000Y-128808600D02*
X124458000Y-127878600D01*
G04 #@! TO.C,Q2*
X150159600Y-116228400D02*
X151089600Y-116228400D01*
X153319600Y-116228400D02*
X152389600Y-116228400D01*
X153319600Y-116228400D02*
X153319600Y-113068400D01*
X150159600Y-116228400D02*
X150159600Y-114768400D01*
G04 #@! TO.C,U1*
X126103600Y-105648600D02*
X126103600Y-106578600D01*
X126103600Y-108808600D02*
X126103600Y-107878600D01*
X126103600Y-108808600D02*
X129263600Y-108808600D01*
X126103600Y-105648600D02*
X127563600Y-105648600D01*
G04 #@! TO.C,D1*
D11*
X129030504Y-104592380D02*
X129030504Y-103592380D01*
X129268600Y-103592380D01*
X129411457Y-103640000D01*
X129506695Y-103735238D01*
X129554314Y-103830476D01*
X129601933Y-104020952D01*
X129601933Y-104163809D01*
X129554314Y-104354285D01*
X129506695Y-104449523D01*
X129411457Y-104544761D01*
X129268600Y-104592380D01*
X129030504Y-104592380D01*
X130554314Y-104592380D02*
X129982885Y-104592380D01*
X130268600Y-104592380D02*
X130268600Y-103592380D01*
X130173361Y-103735238D01*
X130078123Y-103830476D01*
X129982885Y-103878095D01*
G04 #@! TO.C,U2*
X157592780Y-106044904D02*
X158402304Y-106044904D01*
X158497542Y-105997285D01*
X158545161Y-105949666D01*
X158592780Y-105854428D01*
X158592780Y-105663952D01*
X158545161Y-105568714D01*
X158497542Y-105521095D01*
X158402304Y-105473476D01*
X157592780Y-105473476D01*
X157688019Y-105044904D02*
X157640400Y-104997285D01*
X157592780Y-104902047D01*
X157592780Y-104663952D01*
X157640400Y-104568714D01*
X157688019Y-104521095D01*
X157783257Y-104473476D01*
X157878495Y-104473476D01*
X158021352Y-104521095D01*
X158592780Y-105092523D01*
X158592780Y-104473476D01*
G04 #@! TO.C,BT1*
X147199371Y-76020514D02*
X147246990Y-75877657D01*
X147294609Y-75830038D01*
X147389847Y-75782419D01*
X147532704Y-75782419D01*
X147627942Y-75830038D01*
X147675561Y-75877657D01*
X147723180Y-75972895D01*
X147723180Y-76353847D01*
X146723180Y-76353847D01*
X146723180Y-76020514D01*
X146770800Y-75925276D01*
X146818419Y-75877657D01*
X146913657Y-75830038D01*
X147008895Y-75830038D01*
X147104133Y-75877657D01*
X147151752Y-75925276D01*
X147199371Y-76020514D01*
X147199371Y-76353847D01*
X146723180Y-75496704D02*
X146723180Y-74925276D01*
X147723180Y-75210990D02*
X146723180Y-75210990D01*
X147723180Y-74068133D02*
X147723180Y-74639561D01*
X147723180Y-74353847D02*
X146723180Y-74353847D01*
X146866038Y-74449085D01*
X146961276Y-74544323D01*
X147008895Y-74639561D01*
G04 #@! TO.C,BZ1*
X160129647Y-126293571D02*
X160272504Y-126341190D01*
X160320123Y-126388809D01*
X160367742Y-126484047D01*
X160367742Y-126626904D01*
X160320123Y-126722142D01*
X160272504Y-126769761D01*
X160177266Y-126817380D01*
X159796314Y-126817380D01*
X159796314Y-125817380D01*
X160129647Y-125817380D01*
X160224885Y-125865000D01*
X160272504Y-125912619D01*
X160320123Y-126007857D01*
X160320123Y-126103095D01*
X160272504Y-126198333D01*
X160224885Y-126245952D01*
X160129647Y-126293571D01*
X159796314Y-126293571D01*
X160701076Y-125817380D02*
X161367742Y-125817380D01*
X160701076Y-126817380D01*
X161367742Y-126817380D01*
X162272504Y-126817380D02*
X161701076Y-126817380D01*
X161986790Y-126817380D02*
X161986790Y-125817380D01*
X161891552Y-125960238D01*
X161796314Y-126055476D01*
X161701076Y-126103095D01*
G04 #@! TO.C,C1*
X130160733Y-112371142D02*
X130113114Y-112418761D01*
X129970257Y-112466380D01*
X129875019Y-112466380D01*
X129732161Y-112418761D01*
X129636923Y-112323523D01*
X129589304Y-112228285D01*
X129541685Y-112037809D01*
X129541685Y-111894952D01*
X129589304Y-111704476D01*
X129636923Y-111609238D01*
X129732161Y-111514000D01*
X129875019Y-111466380D01*
X129970257Y-111466380D01*
X130113114Y-111514000D01*
X130160733Y-111561619D01*
X131113114Y-112466380D02*
X130541685Y-112466380D01*
X130827400Y-112466380D02*
X130827400Y-111466380D01*
X130732161Y-111609238D01*
X130636923Y-111704476D01*
X130541685Y-111752095D01*
G04 #@! TO.C,D5*
X159739104Y-120772180D02*
X159739104Y-119772180D01*
X159977200Y-119772180D01*
X160120057Y-119819800D01*
X160215295Y-119915038D01*
X160262914Y-120010276D01*
X160310533Y-120200752D01*
X160310533Y-120343609D01*
X160262914Y-120534085D01*
X160215295Y-120629323D01*
X160120057Y-120724561D01*
X159977200Y-120772180D01*
X159739104Y-120772180D01*
X161215295Y-119772180D02*
X160739104Y-119772180D01*
X160691485Y-120248371D01*
X160739104Y-120200752D01*
X160834342Y-120153133D01*
X161072438Y-120153133D01*
X161167676Y-120200752D01*
X161215295Y-120248371D01*
X161262914Y-120343609D01*
X161262914Y-120581704D01*
X161215295Y-120676942D01*
X161167676Y-120724561D01*
X161072438Y-120772180D01*
X160834342Y-120772180D01*
X160739104Y-120724561D01*
X160691485Y-120676942D01*
G04 #@! TO.C,J1*
X134764980Y-53266933D02*
X135479266Y-53266933D01*
X135622123Y-53314552D01*
X135717361Y-53409790D01*
X135764980Y-53552647D01*
X135764980Y-53647885D01*
X135764980Y-52266933D02*
X135764980Y-52838361D01*
X135764980Y-52552647D02*
X134764980Y-52552647D01*
X134907838Y-52647885D01*
X135003076Y-52743123D01*
X135050695Y-52838361D01*
G04 #@! TO.C,L2*
X122473980Y-98261466D02*
X122473980Y-98737657D01*
X121473980Y-98737657D01*
X121569219Y-97975752D02*
X121521600Y-97928133D01*
X121473980Y-97832895D01*
X121473980Y-97594800D01*
X121521600Y-97499561D01*
X121569219Y-97451942D01*
X121664457Y-97404323D01*
X121759695Y-97404323D01*
X121902552Y-97451942D01*
X122473980Y-98023371D01*
X122473980Y-97404323D01*
G04 #@! TO.C,R1*
X127789533Y-131314180D02*
X127456200Y-130837990D01*
X127218104Y-131314180D02*
X127218104Y-130314180D01*
X127599057Y-130314180D01*
X127694295Y-130361800D01*
X127741914Y-130409419D01*
X127789533Y-130504657D01*
X127789533Y-130647514D01*
X127741914Y-130742752D01*
X127694295Y-130790371D01*
X127599057Y-130837990D01*
X127218104Y-130837990D01*
X128741914Y-131314180D02*
X128170485Y-131314180D01*
X128456200Y-131314180D02*
X128456200Y-130314180D01*
X128360961Y-130457038D01*
X128265723Y-130552276D01*
X128170485Y-130599895D01*
G04 #@! TO.C,R3*
X155738533Y-113177580D02*
X155405200Y-112701390D01*
X155167104Y-113177580D02*
X155167104Y-112177580D01*
X155548057Y-112177580D01*
X155643295Y-112225200D01*
X155690914Y-112272819D01*
X155738533Y-112368057D01*
X155738533Y-112510914D01*
X155690914Y-112606152D01*
X155643295Y-112653771D01*
X155548057Y-112701390D01*
X155167104Y-112701390D01*
X156071866Y-112177580D02*
X156690914Y-112177580D01*
X156357580Y-112558533D01*
X156500438Y-112558533D01*
X156595676Y-112606152D01*
X156643295Y-112653771D01*
X156690914Y-112749009D01*
X156690914Y-112987104D01*
X156643295Y-113082342D01*
X156595676Y-113129961D01*
X156500438Y-113177580D01*
X156214723Y-113177580D01*
X156119485Y-113129961D01*
X156071866Y-113082342D01*
G04 #@! TO.C,TP2*
X115240276Y-118705380D02*
X115811704Y-118705380D01*
X115525990Y-119705380D02*
X115525990Y-118705380D01*
X116145038Y-119705380D02*
X116145038Y-118705380D01*
X116525990Y-118705380D01*
X116621228Y-118753000D01*
X116668847Y-118800619D01*
X116716466Y-118895857D01*
X116716466Y-119038714D01*
X116668847Y-119133952D01*
X116621228Y-119181571D01*
X116525990Y-119229190D01*
X116145038Y-119229190D01*
X116906942Y-119800619D02*
X117668847Y-119800619D01*
X118383133Y-119705380D02*
X117906942Y-119705380D01*
X117906942Y-118705380D01*
X119097419Y-119657761D02*
X119002180Y-119705380D01*
X118811704Y-119705380D01*
X118716466Y-119657761D01*
X118668847Y-119562523D01*
X118668847Y-119181571D01*
X118716466Y-119086333D01*
X118811704Y-119038714D01*
X119002180Y-119038714D01*
X119097419Y-119086333D01*
X119145038Y-119181571D01*
X119145038Y-119276809D01*
X118668847Y-119372047D01*
X120002180Y-119705380D02*
X120002180Y-118705380D01*
X120002180Y-119657761D02*
X119906942Y-119705380D01*
X119716466Y-119705380D01*
X119621228Y-119657761D01*
X119573609Y-119610142D01*
X119525990Y-119514904D01*
X119525990Y-119229190D01*
X119573609Y-119133952D01*
X119621228Y-119086333D01*
X119716466Y-119038714D01*
X119906942Y-119038714D01*
X120002180Y-119086333D01*
X120478371Y-119181571D02*
X120811704Y-119181571D01*
X120954561Y-119705380D02*
X120478371Y-119705380D01*
X120478371Y-118705380D01*
X120954561Y-118705380D01*
X121383133Y-119038714D02*
X121383133Y-119705380D01*
X121383133Y-119133952D02*
X121430752Y-119086333D01*
X121525990Y-119038714D01*
X121668847Y-119038714D01*
X121764085Y-119086333D01*
X121811704Y-119181571D01*
X121811704Y-119705380D01*
X122716466Y-119705380D02*
X122716466Y-119181571D01*
X122668847Y-119086333D01*
X122573609Y-119038714D01*
X122383133Y-119038714D01*
X122287895Y-119086333D01*
X122716466Y-119657761D02*
X122621228Y-119705380D01*
X122383133Y-119705380D01*
X122287895Y-119657761D01*
X122240276Y-119562523D01*
X122240276Y-119467285D01*
X122287895Y-119372047D01*
X122383133Y-119324428D01*
X122621228Y-119324428D01*
X122716466Y-119276809D01*
G04 #@! TO.C,TP3*
X119264419Y-105294780D02*
X119835847Y-105294780D01*
X119550133Y-106294780D02*
X119550133Y-105294780D01*
X120169180Y-106294780D02*
X120169180Y-105294780D01*
X120550133Y-105294780D01*
X120645371Y-105342400D01*
X120692990Y-105390019D01*
X120740609Y-105485257D01*
X120740609Y-105628114D01*
X120692990Y-105723352D01*
X120645371Y-105770971D01*
X120550133Y-105818590D01*
X120169180Y-105818590D01*
X120931085Y-106390019D02*
X121692990Y-106390019D01*
X121788228Y-105294780D02*
X122121561Y-106294780D01*
X122454895Y-105294780D01*
X123216800Y-106247161D02*
X123121561Y-106294780D01*
X122931085Y-106294780D01*
X122835847Y-106247161D01*
X122788228Y-106199542D01*
X122740609Y-106104304D01*
X122740609Y-105818590D01*
X122788228Y-105723352D01*
X122835847Y-105675733D01*
X122931085Y-105628114D01*
X123121561Y-105628114D01*
X123216800Y-105675733D01*
X124073942Y-106247161D02*
X123978704Y-106294780D01*
X123788228Y-106294780D01*
X123692990Y-106247161D01*
X123645371Y-106199542D01*
X123597752Y-106104304D01*
X123597752Y-105818590D01*
X123645371Y-105723352D01*
X123692990Y-105675733D01*
X123788228Y-105628114D01*
X123978704Y-105628114D01*
X124073942Y-105675733D01*
G04 #@! TO.C,TP5*
X114967238Y-121372380D02*
X115538666Y-121372380D01*
X115252952Y-122372380D02*
X115252952Y-121372380D01*
X115872000Y-122372380D02*
X115872000Y-121372380D01*
X116252952Y-121372380D01*
X116348190Y-121420000D01*
X116395809Y-121467619D01*
X116443428Y-121562857D01*
X116443428Y-121705714D01*
X116395809Y-121800952D01*
X116348190Y-121848571D01*
X116252952Y-121896190D01*
X115872000Y-121896190D01*
X116633904Y-122467619D02*
X117395809Y-122467619D01*
X117633904Y-122372380D02*
X117633904Y-121372380D01*
X118014857Y-121372380D01*
X118110095Y-121420000D01*
X118157714Y-121467619D01*
X118205333Y-121562857D01*
X118205333Y-121705714D01*
X118157714Y-121800952D01*
X118110095Y-121848571D01*
X118014857Y-121896190D01*
X117633904Y-121896190D01*
X118633904Y-122372380D02*
X118633904Y-121372380D01*
X119014857Y-121372380D02*
X119681523Y-122372380D01*
X119681523Y-121372380D02*
X119014857Y-122372380D01*
X120586285Y-121420000D02*
X120491047Y-121372380D01*
X120348190Y-121372380D01*
X120205333Y-121420000D01*
X120110095Y-121515238D01*
X120062476Y-121610476D01*
X120014857Y-121800952D01*
X120014857Y-121943809D01*
X120062476Y-122134285D01*
X120110095Y-122229523D01*
X120205333Y-122324761D01*
X120348190Y-122372380D01*
X120443428Y-122372380D01*
X120586285Y-122324761D01*
X120633904Y-122277142D01*
X120633904Y-121943809D01*
X120443428Y-121943809D01*
X121062476Y-122372380D02*
X121062476Y-121372380D01*
X121633904Y-122372380D01*
X121633904Y-121372380D01*
X122110095Y-122372380D02*
X122110095Y-121372380D01*
X122348190Y-121372380D01*
X122491047Y-121420000D01*
X122586285Y-121515238D01*
X122633904Y-121610476D01*
X122681523Y-121800952D01*
X122681523Y-121943809D01*
X122633904Y-122134285D01*
X122586285Y-122229523D01*
X122491047Y-122324761D01*
X122348190Y-122372380D01*
X122110095Y-122372380D01*
G04 #@! TO.C,JP1*
X149610866Y-134224780D02*
X149610866Y-134939066D01*
X149563247Y-135081923D01*
X149468009Y-135177161D01*
X149325152Y-135224780D01*
X149229914Y-135224780D01*
X150087057Y-135224780D02*
X150087057Y-134224780D01*
X150468009Y-134224780D01*
X150563247Y-134272400D01*
X150610866Y-134320019D01*
X150658485Y-134415257D01*
X150658485Y-134558114D01*
X150610866Y-134653352D01*
X150563247Y-134700971D01*
X150468009Y-134748590D01*
X150087057Y-134748590D01*
X151610866Y-135224780D02*
X151039438Y-135224780D01*
X151325152Y-135224780D02*
X151325152Y-134224780D01*
X151229914Y-134367638D01*
X151134676Y-134462876D01*
X151039438Y-134510495D01*
G04 #@! TO.C,C2*
X149794933Y-107443542D02*
X149747314Y-107491161D01*
X149604457Y-107538780D01*
X149509219Y-107538780D01*
X149366361Y-107491161D01*
X149271123Y-107395923D01*
X149223504Y-107300685D01*
X149175885Y-107110209D01*
X149175885Y-106967352D01*
X149223504Y-106776876D01*
X149271123Y-106681638D01*
X149366361Y-106586400D01*
X149509219Y-106538780D01*
X149604457Y-106538780D01*
X149747314Y-106586400D01*
X149794933Y-106634019D01*
X150175885Y-106634019D02*
X150223504Y-106586400D01*
X150318742Y-106538780D01*
X150556838Y-106538780D01*
X150652076Y-106586400D01*
X150699695Y-106634019D01*
X150747314Y-106729257D01*
X150747314Y-106824495D01*
X150699695Y-106967352D01*
X150128266Y-107538780D01*
X150747314Y-107538780D01*
G04 #@! TO.C,Q1*
X123602761Y-125276219D02*
X123507523Y-125228600D01*
X123412285Y-125133361D01*
X123269428Y-124990504D01*
X123174190Y-124942885D01*
X123078952Y-124942885D01*
X123126571Y-125180980D02*
X123031333Y-125133361D01*
X122936095Y-125038123D01*
X122888476Y-124847647D01*
X122888476Y-124514314D01*
X122936095Y-124323838D01*
X123031333Y-124228600D01*
X123126571Y-124180980D01*
X123317047Y-124180980D01*
X123412285Y-124228600D01*
X123507523Y-124323838D01*
X123555142Y-124514314D01*
X123555142Y-124847647D01*
X123507523Y-125038123D01*
X123412285Y-125133361D01*
X123317047Y-125180980D01*
X123126571Y-125180980D01*
X124507523Y-125180980D02*
X123936095Y-125180980D01*
X124221809Y-125180980D02*
X124221809Y-124180980D01*
X124126571Y-124323838D01*
X124031333Y-124419076D01*
X123936095Y-124466695D01*
G04 #@! TO.C,Q2*
X154787219Y-115563638D02*
X154739600Y-115658876D01*
X154644361Y-115754114D01*
X154501504Y-115896971D01*
X154453885Y-115992209D01*
X154453885Y-116087447D01*
X154691980Y-116039828D02*
X154644361Y-116135066D01*
X154549123Y-116230304D01*
X154358647Y-116277923D01*
X154025314Y-116277923D01*
X153834838Y-116230304D01*
X153739600Y-116135066D01*
X153691980Y-116039828D01*
X153691980Y-115849352D01*
X153739600Y-115754114D01*
X153834838Y-115658876D01*
X154025314Y-115611257D01*
X154358647Y-115611257D01*
X154549123Y-115658876D01*
X154644361Y-115754114D01*
X154691980Y-115849352D01*
X154691980Y-116039828D01*
X153787219Y-115230304D02*
X153739600Y-115182685D01*
X153691980Y-115087447D01*
X153691980Y-114849352D01*
X153739600Y-114754114D01*
X153787219Y-114706495D01*
X153882457Y-114658876D01*
X153977695Y-114658876D01*
X154120552Y-114706495D01*
X154691980Y-115277923D01*
X154691980Y-114658876D01*
G04 #@! TO.C,U1*
X126101695Y-109180980D02*
X126101695Y-109990504D01*
X126149314Y-110085742D01*
X126196933Y-110133361D01*
X126292171Y-110180980D01*
X126482647Y-110180980D01*
X126577885Y-110133361D01*
X126625504Y-110085742D01*
X126673123Y-109990504D01*
X126673123Y-109180980D01*
X127673123Y-110180980D02*
X127101695Y-110180980D01*
X127387409Y-110180980D02*
X127387409Y-109180980D01*
X127292171Y-109323838D01*
X127196933Y-109419076D01*
X127101695Y-109466695D01*
G04 #@! TD*
M02*
