G04 #@! TF.GenerationSoftware,KiCad,Pcbnew,(5.0.1)-4*
G04 #@! TF.CreationDate,2019-03-02T12:17:37+01:00*
G04 #@! TF.ProjectId,Simple_Christamas_Ornament,53696D706C655F436872697374616D61,rev?*
G04 #@! TF.SameCoordinates,Original*
G04 #@! TF.FileFunction,Copper,L2,Bot,Signal*
G04 #@! TF.FilePolarity,Positive*
%FSLAX46Y46*%
G04 Gerber Fmt 4.6, Leading zero omitted, Abs format (unit mm)*
G04 Created by KiCad (PCBNEW (5.0.1)-4) date 02/03/2019 12:17:37*
%MOMM*%
%LPD*%
G01*
G04 APERTURE LIST*
G04 #@! TA.AperFunction,SMDPad,CuDef*
%ADD10R,1.500000X1.000000*%
G04 #@! TD*
G04 #@! TA.AperFunction,ComponentPad*
%ADD11C,2.000000*%
G04 #@! TD*
G04 #@! TA.AperFunction,ViaPad*
%ADD12C,0.600000*%
G04 #@! TD*
G04 #@! TA.AperFunction,Conductor*
%ADD13C,0.300000*%
G04 #@! TD*
G04 #@! TA.AperFunction,Conductor*
%ADD14C,0.200000*%
G04 #@! TD*
G04 #@! TA.AperFunction,NonConductor*
%ADD15C,0.254000*%
G04 #@! TD*
G04 APERTURE END LIST*
D10*
G04 #@! TO.P,D2,3*
G04 #@! TO.N,/PIX_GND*
X128741000Y-102311000D03*
G04 #@! TO.P,D2,4*
G04 #@! TO.N,/LedData_MISO*
X128741000Y-99111000D03*
G04 #@! TO.P,D2,2*
G04 #@! TO.N,Net-(D2-Pad2)*
X133641000Y-102311000D03*
G04 #@! TO.P,D2,1*
G04 #@! TO.N,VCC*
X133641000Y-99111000D03*
G04 #@! TD*
G04 #@! TO.P,D3,1*
G04 #@! TO.N,VCC*
X127672000Y-112636500D03*
G04 #@! TO.P,D3,2*
G04 #@! TO.N,Net-(D3-Pad2)*
X127672000Y-115836500D03*
G04 #@! TO.P,D3,4*
G04 #@! TO.N,Net-(D2-Pad2)*
X122772000Y-112636500D03*
G04 #@! TO.P,D3,3*
G04 #@! TO.N,/PIX_GND*
X122772000Y-115836500D03*
G04 #@! TD*
G04 #@! TO.P,D4,3*
G04 #@! TO.N,/PIX_GND*
X128233000Y-129997000D03*
G04 #@! TO.P,D4,4*
G04 #@! TO.N,Net-(D3-Pad2)*
X128233000Y-126797000D03*
G04 #@! TO.P,D4,2*
G04 #@! TO.N,Net-(D4-Pad2)*
X133133000Y-129997000D03*
G04 #@! TO.P,D4,1*
G04 #@! TO.N,VCC*
X133133000Y-126797000D03*
G04 #@! TD*
D11*
G04 #@! TO.P,SW1,2*
G04 #@! TO.N,GND*
X143078200Y-139678800D03*
G04 #@! TO.P,SW1,1*
G04 #@! TO.N,/Button*
X143078200Y-135178800D03*
G04 #@! TO.P,SW1,2*
G04 #@! TO.N,GND*
X136578200Y-139678800D03*
G04 #@! TO.P,SW1,1*
G04 #@! TO.N,/Button*
X136578200Y-135178800D03*
G04 #@! TD*
D12*
G04 #@! TO.N,VCC*
X125196600Y-113995200D03*
X130886200Y-128346200D03*
X131241800Y-98983800D03*
G04 #@! TO.N,/PIX_GND*
X129133600Y-128549400D03*
G04 #@! TO.N,/LedData_MISO*
X131140200Y-100761800D03*
G04 #@! TD*
D13*
G04 #@! TO.N,VCC*
X134691000Y-99111000D02*
X135864600Y-100284600D01*
X133641000Y-99111000D02*
X134691000Y-99111000D01*
X135864600Y-100284600D02*
X135864600Y-102641400D01*
X127672000Y-110834000D02*
X127672000Y-112636500D01*
X135864600Y-102641400D02*
X127672000Y-110834000D01*
X132883000Y-126797000D02*
X133133000Y-126797000D01*
X129362200Y-115126700D02*
X129362200Y-116206302D01*
X129362200Y-116206302D02*
X129387600Y-116231702D01*
X127672000Y-113436500D02*
X129362200Y-115126700D01*
X129387600Y-116231702D02*
X129387600Y-123301600D01*
X129387600Y-123301600D02*
X132883000Y-126797000D01*
X127672000Y-113436500D02*
X127672000Y-112636500D01*
X127113300Y-113995200D02*
X127672000Y-113436500D01*
X125196600Y-113995200D02*
X127113300Y-113995200D01*
X133133000Y-126797000D02*
X132435400Y-126797000D01*
X132435400Y-126797000D02*
X130886200Y-128346200D01*
X133513800Y-98983800D02*
X133641000Y-99111000D01*
X131241800Y-98983800D02*
X133513800Y-98983800D01*
G04 #@! TO.N,/PIX_GND*
X127983000Y-129997000D02*
X128233000Y-129997000D01*
X122772000Y-124786000D02*
X127983000Y-129997000D01*
X122772000Y-115836500D02*
X122772000Y-124786000D01*
X122772000Y-115036500D02*
X122772000Y-115836500D01*
X120573800Y-112838300D02*
X122772000Y-115036500D01*
X120573800Y-109428200D02*
X120573800Y-112838300D01*
X127691000Y-102311000D02*
X120573800Y-109428200D01*
X128741000Y-102311000D02*
X127691000Y-102311000D01*
X128233000Y-129450000D02*
X129133600Y-128549400D01*
X128233000Y-129997000D02*
X128233000Y-129450000D01*
D14*
G04 #@! TO.N,Net-(D2-Pad2)*
X123722000Y-112636500D02*
X122772000Y-112636500D01*
X124015500Y-112636500D02*
X123722000Y-112636500D01*
X133641000Y-103011000D02*
X124015500Y-112636500D01*
X133641000Y-102311000D02*
X133641000Y-103011000D01*
G04 #@! TO.N,Net-(D3-Pad2)*
X128233000Y-116397500D02*
X127672000Y-115836500D01*
X128233000Y-126797000D02*
X128233000Y-116397500D01*
G04 #@! TO.N,/LedData_MISO*
X130641800Y-100761800D02*
X131140200Y-100761800D01*
X128741000Y-99111000D02*
X128991000Y-99111000D01*
X128991000Y-99111000D02*
X130641800Y-100761800D01*
G04 #@! TD*
D15*
G36*
X132842254Y-72040377D02*
X132918555Y-72307431D01*
X132943459Y-73552637D01*
X132869529Y-74218005D01*
X132765570Y-74550673D01*
X132621842Y-74598583D01*
X132221330Y-74575023D01*
X125906500Y-73509871D01*
X124352227Y-73171119D01*
X125115551Y-73023379D01*
X127753543Y-72668265D01*
X132709404Y-72010855D01*
X132842254Y-72040377D01*
X132842254Y-72040377D01*
G37*
X132842254Y-72040377D02*
X132918555Y-72307431D01*
X132943459Y-73552637D01*
X132869529Y-74218005D01*
X132765570Y-74550673D01*
X132621842Y-74598583D01*
X132221330Y-74575023D01*
X125906500Y-73509871D01*
X124352227Y-73171119D01*
X125115551Y-73023379D01*
X127753543Y-72668265D01*
X132709404Y-72010855D01*
X132842254Y-72040377D01*
M02*
