G04 #@! TF.GenerationSoftware,KiCad,Pcbnew,(5.0.1)-4*
G04 #@! TF.CreationDate,2019-03-02T12:17:37+01:00*
G04 #@! TF.ProjectId,Simple_Christamas_Ornament,53696D706C655F436872697374616D61,rev?*
G04 #@! TF.SameCoordinates,Original*
G04 #@! TF.FileFunction,Soldermask,Top*
G04 #@! TF.FilePolarity,Negative*
%FSLAX46Y46*%
G04 Gerber Fmt 4.6, Leading zero omitted, Abs format (unit mm)*
G04 Created by KiCad (PCBNEW (5.0.1)-4) date 02/03/2019 12:17:37*
%MOMM*%
%LPD*%
G01*
G04 APERTURE LIST*
%ADD10C,0.100000*%
G04 APERTURE END LIST*
D10*
G36*
X143384765Y-138668189D02*
X143576034Y-138747415D01*
X143748176Y-138862437D01*
X143894563Y-139008824D01*
X144009585Y-139180966D01*
X144088811Y-139372235D01*
X144129200Y-139575284D01*
X144129200Y-139782316D01*
X144088811Y-139985365D01*
X144009585Y-140176634D01*
X143894563Y-140348776D01*
X143748176Y-140495163D01*
X143576034Y-140610185D01*
X143384765Y-140689411D01*
X143181716Y-140729800D01*
X142974684Y-140729800D01*
X142771635Y-140689411D01*
X142580366Y-140610185D01*
X142408224Y-140495163D01*
X142261837Y-140348776D01*
X142146815Y-140176634D01*
X142067589Y-139985365D01*
X142027200Y-139782316D01*
X142027200Y-139575284D01*
X142067589Y-139372235D01*
X142146815Y-139180966D01*
X142261837Y-139008824D01*
X142408224Y-138862437D01*
X142580366Y-138747415D01*
X142771635Y-138668189D01*
X142974684Y-138627800D01*
X143181716Y-138627800D01*
X143384765Y-138668189D01*
X143384765Y-138668189D01*
G37*
G36*
X136884765Y-138668189D02*
X137076034Y-138747415D01*
X137248176Y-138862437D01*
X137394563Y-139008824D01*
X137509585Y-139180966D01*
X137588811Y-139372235D01*
X137629200Y-139575284D01*
X137629200Y-139782316D01*
X137588811Y-139985365D01*
X137509585Y-140176634D01*
X137394563Y-140348776D01*
X137248176Y-140495163D01*
X137076034Y-140610185D01*
X136884765Y-140689411D01*
X136681716Y-140729800D01*
X136474684Y-140729800D01*
X136271635Y-140689411D01*
X136080366Y-140610185D01*
X135908224Y-140495163D01*
X135761837Y-140348776D01*
X135646815Y-140176634D01*
X135567589Y-139985365D01*
X135527200Y-139782316D01*
X135527200Y-139575284D01*
X135567589Y-139372235D01*
X135646815Y-139180966D01*
X135761837Y-139008824D01*
X135908224Y-138862437D01*
X136080366Y-138747415D01*
X136271635Y-138668189D01*
X136474684Y-138627800D01*
X136681716Y-138627800D01*
X136884765Y-138668189D01*
X136884765Y-138668189D01*
G37*
G36*
X143384765Y-134168189D02*
X143576034Y-134247415D01*
X143748176Y-134362437D01*
X143894563Y-134508824D01*
X144009585Y-134680966D01*
X144088811Y-134872235D01*
X144129200Y-135075284D01*
X144129200Y-135282316D01*
X144088811Y-135485365D01*
X144009585Y-135676634D01*
X143894563Y-135848776D01*
X143748176Y-135995163D01*
X143576034Y-136110185D01*
X143384765Y-136189411D01*
X143181716Y-136229800D01*
X142974684Y-136229800D01*
X142771635Y-136189411D01*
X142580366Y-136110185D01*
X142408224Y-135995163D01*
X142261837Y-135848776D01*
X142146815Y-135676634D01*
X142067589Y-135485365D01*
X142027200Y-135282316D01*
X142027200Y-135075284D01*
X142067589Y-134872235D01*
X142146815Y-134680966D01*
X142261837Y-134508824D01*
X142408224Y-134362437D01*
X142580366Y-134247415D01*
X142771635Y-134168189D01*
X142974684Y-134127800D01*
X143181716Y-134127800D01*
X143384765Y-134168189D01*
X143384765Y-134168189D01*
G37*
G36*
X136884765Y-134168189D02*
X137076034Y-134247415D01*
X137248176Y-134362437D01*
X137394563Y-134508824D01*
X137509585Y-134680966D01*
X137588811Y-134872235D01*
X137629200Y-135075284D01*
X137629200Y-135282316D01*
X137588811Y-135485365D01*
X137509585Y-135676634D01*
X137394563Y-135848776D01*
X137248176Y-135995163D01*
X137076034Y-136110185D01*
X136884765Y-136189411D01*
X136681716Y-136229800D01*
X136474684Y-136229800D01*
X136271635Y-136189411D01*
X136080366Y-136110185D01*
X135908224Y-135995163D01*
X135761837Y-135848776D01*
X135646815Y-135676634D01*
X135567589Y-135485365D01*
X135527200Y-135282316D01*
X135527200Y-135075284D01*
X135567589Y-134872235D01*
X135646815Y-134680966D01*
X135761837Y-134508824D01*
X135908224Y-134362437D01*
X136080366Y-134247415D01*
X136271635Y-134168189D01*
X136474684Y-134127800D01*
X136681716Y-134127800D01*
X136884765Y-134168189D01*
X136884765Y-134168189D01*
G37*
G36*
X146622677Y-134076665D02*
X146660364Y-134088098D01*
X146695103Y-134106666D01*
X146725548Y-134131652D01*
X146750534Y-134162097D01*
X146769102Y-134196836D01*
X146780535Y-134234523D01*
X146785000Y-134279861D01*
X146785000Y-135366539D01*
X146780535Y-135411877D01*
X146769102Y-135449564D01*
X146750534Y-135484303D01*
X146725548Y-135514748D01*
X146695103Y-135539734D01*
X146660364Y-135558302D01*
X146622677Y-135569735D01*
X146577339Y-135574200D01*
X145740661Y-135574200D01*
X145695323Y-135569735D01*
X145657636Y-135558302D01*
X145622897Y-135539734D01*
X145592452Y-135514748D01*
X145567466Y-135484303D01*
X145548898Y-135449564D01*
X145537465Y-135411877D01*
X145533000Y-135366539D01*
X145533000Y-134279861D01*
X145537465Y-134234523D01*
X145548898Y-134196836D01*
X145567466Y-134162097D01*
X145592452Y-134131652D01*
X145622897Y-134106666D01*
X145657636Y-134088098D01*
X145695323Y-134076665D01*
X145740661Y-134072200D01*
X146577339Y-134072200D01*
X146622677Y-134076665D01*
X146622677Y-134076665D01*
G37*
G36*
X148672677Y-134076665D02*
X148710364Y-134088098D01*
X148745103Y-134106666D01*
X148775548Y-134131652D01*
X148800534Y-134162097D01*
X148819102Y-134196836D01*
X148830535Y-134234523D01*
X148835000Y-134279861D01*
X148835000Y-135366539D01*
X148830535Y-135411877D01*
X148819102Y-135449564D01*
X148800534Y-135484303D01*
X148775548Y-135514748D01*
X148745103Y-135539734D01*
X148710364Y-135558302D01*
X148672677Y-135569735D01*
X148627339Y-135574200D01*
X147790661Y-135574200D01*
X147745323Y-135569735D01*
X147707636Y-135558302D01*
X147672897Y-135539734D01*
X147642452Y-135514748D01*
X147617466Y-135484303D01*
X147598898Y-135449564D01*
X147587465Y-135411877D01*
X147583000Y-135366539D01*
X147583000Y-134279861D01*
X147587465Y-134234523D01*
X147598898Y-134196836D01*
X147617466Y-134162097D01*
X147642452Y-134131652D01*
X147672897Y-134106666D01*
X147707636Y-134088098D01*
X147745323Y-134076665D01*
X147790661Y-134072200D01*
X148627339Y-134072200D01*
X148672677Y-134076665D01*
X148672677Y-134076665D01*
G37*
G36*
X129444877Y-131765265D02*
X129482564Y-131776698D01*
X129517303Y-131795266D01*
X129547748Y-131820252D01*
X129572734Y-131850697D01*
X129591302Y-131885436D01*
X129602735Y-131923123D01*
X129607200Y-131968461D01*
X129607200Y-133055139D01*
X129602735Y-133100477D01*
X129591302Y-133138164D01*
X129572734Y-133172903D01*
X129547748Y-133203348D01*
X129517303Y-133228334D01*
X129482564Y-133246902D01*
X129444877Y-133258335D01*
X129399539Y-133262800D01*
X128562861Y-133262800D01*
X128517523Y-133258335D01*
X128479836Y-133246902D01*
X128445097Y-133228334D01*
X128414652Y-133203348D01*
X128389666Y-133172903D01*
X128371098Y-133138164D01*
X128359665Y-133100477D01*
X128355200Y-133055139D01*
X128355200Y-131968461D01*
X128359665Y-131923123D01*
X128371098Y-131885436D01*
X128389666Y-131850697D01*
X128414652Y-131820252D01*
X128445097Y-131795266D01*
X128479836Y-131776698D01*
X128517523Y-131765265D01*
X128562861Y-131760800D01*
X129399539Y-131760800D01*
X129444877Y-131765265D01*
X129444877Y-131765265D01*
G37*
G36*
X127394877Y-131765265D02*
X127432564Y-131776698D01*
X127467303Y-131795266D01*
X127497748Y-131820252D01*
X127522734Y-131850697D01*
X127541302Y-131885436D01*
X127552735Y-131923123D01*
X127557200Y-131968461D01*
X127557200Y-133055139D01*
X127552735Y-133100477D01*
X127541302Y-133138164D01*
X127522734Y-133172903D01*
X127497748Y-133203348D01*
X127467303Y-133228334D01*
X127432564Y-133246902D01*
X127394877Y-133258335D01*
X127349539Y-133262800D01*
X126512861Y-133262800D01*
X126467523Y-133258335D01*
X126429836Y-133246902D01*
X126395097Y-133228334D01*
X126364652Y-133203348D01*
X126339666Y-133172903D01*
X126321098Y-133138164D01*
X126309665Y-133100477D01*
X126305200Y-133055139D01*
X126305200Y-131968461D01*
X126309665Y-131923123D01*
X126321098Y-131885436D01*
X126339666Y-131850697D01*
X126364652Y-131820252D01*
X126395097Y-131795266D01*
X126429836Y-131776698D01*
X126467523Y-131765265D01*
X126512861Y-131760800D01*
X127349539Y-131760800D01*
X127394877Y-131765265D01*
X127394877Y-131765265D01*
G37*
G36*
X142241800Y-132181800D02*
X137059800Y-132181800D01*
X137059800Y-126999800D01*
X142241800Y-126999800D01*
X142241800Y-132181800D01*
X142241800Y-132181800D01*
G37*
G36*
X152521600Y-131469600D02*
X150419600Y-131469600D01*
X150419600Y-129367600D01*
X152521600Y-129367600D01*
X152521600Y-131469600D01*
X152521600Y-131469600D01*
G37*
G36*
X123199000Y-128629600D02*
X121197000Y-128629600D01*
X121197000Y-127727600D01*
X123199000Y-127727600D01*
X123199000Y-128629600D01*
X123199000Y-128629600D01*
G37*
G36*
X126199000Y-127679600D02*
X124197000Y-127679600D01*
X124197000Y-126777600D01*
X126199000Y-126777600D01*
X126199000Y-127679600D01*
X126199000Y-127679600D01*
G37*
G36*
X123199000Y-126729600D02*
X121197000Y-126729600D01*
X121197000Y-125827600D01*
X123199000Y-125827600D01*
X123199000Y-126729600D01*
X123199000Y-126729600D01*
G37*
G36*
X159521600Y-124469600D02*
X157419600Y-124469600D01*
X157419600Y-122367600D01*
X159521600Y-122367600D01*
X159521600Y-124469600D01*
X159521600Y-124469600D01*
G37*
G36*
X152521600Y-124469600D02*
X150419600Y-124469600D01*
X150419600Y-122367600D01*
X152521600Y-122367600D01*
X152521600Y-124469600D01*
X152521600Y-124469600D01*
G37*
G36*
X124477600Y-122445600D02*
X123375600Y-122445600D01*
X123375600Y-121343600D01*
X124477600Y-121343600D01*
X124477600Y-122445600D01*
X124477600Y-122445600D01*
G37*
G36*
X159241000Y-121143800D02*
X155639000Y-121143800D01*
X155639000Y-119241800D01*
X159241000Y-119241800D01*
X159241000Y-121143800D01*
X159241000Y-121143800D01*
G37*
G36*
X154241000Y-121143800D02*
X150639000Y-121143800D01*
X150639000Y-119241800D01*
X154241000Y-119241800D01*
X154241000Y-121143800D01*
X154241000Y-121143800D01*
G37*
G36*
X124426800Y-119981800D02*
X123324800Y-119981800D01*
X123324800Y-118879800D01*
X124426800Y-118879800D01*
X124426800Y-119981800D01*
X124426800Y-119981800D01*
G37*
G36*
X152190600Y-117969400D02*
X151288600Y-117969400D01*
X151288600Y-115967400D01*
X152190600Y-115967400D01*
X152190600Y-117969400D01*
X152190600Y-117969400D01*
G37*
G36*
X156366877Y-115735865D02*
X156404564Y-115747298D01*
X156439303Y-115765866D01*
X156469748Y-115790852D01*
X156494734Y-115821297D01*
X156513302Y-115856036D01*
X156524735Y-115893723D01*
X156529200Y-115939061D01*
X156529200Y-116775739D01*
X156524735Y-116821077D01*
X156513302Y-116858764D01*
X156494734Y-116893503D01*
X156469748Y-116923948D01*
X156439303Y-116948934D01*
X156404564Y-116967502D01*
X156366877Y-116978935D01*
X156321539Y-116983400D01*
X155234861Y-116983400D01*
X155189523Y-116978935D01*
X155151836Y-116967502D01*
X155117097Y-116948934D01*
X155086652Y-116923948D01*
X155061666Y-116893503D01*
X155043098Y-116858764D01*
X155031665Y-116821077D01*
X155027200Y-116775739D01*
X155027200Y-115939061D01*
X155031665Y-115893723D01*
X155043098Y-115856036D01*
X155061666Y-115821297D01*
X155086652Y-115790852D01*
X155117097Y-115765866D01*
X155151836Y-115747298D01*
X155189523Y-115735865D01*
X155234861Y-115731400D01*
X156321539Y-115731400D01*
X156366877Y-115735865D01*
X156366877Y-115735865D01*
G37*
G36*
X151240600Y-114969400D02*
X150338600Y-114969400D01*
X150338600Y-112967400D01*
X151240600Y-112967400D01*
X151240600Y-114969400D01*
X151240600Y-114969400D01*
G37*
G36*
X153140600Y-114969400D02*
X152238600Y-114969400D01*
X152238600Y-112967400D01*
X153140600Y-112967400D01*
X153140600Y-114969400D01*
X153140600Y-114969400D01*
G37*
G36*
X156366877Y-113685865D02*
X156404564Y-113697298D01*
X156439303Y-113715866D01*
X156469748Y-113740852D01*
X156494734Y-113771297D01*
X156513302Y-113806036D01*
X156524735Y-113843723D01*
X156529200Y-113889061D01*
X156529200Y-114725739D01*
X156524735Y-114771077D01*
X156513302Y-114808764D01*
X156494734Y-114843503D01*
X156469748Y-114873948D01*
X156439303Y-114898934D01*
X156404564Y-114917502D01*
X156366877Y-114928935D01*
X156321539Y-114933400D01*
X155234861Y-114933400D01*
X155189523Y-114928935D01*
X155151836Y-114917502D01*
X155117097Y-114898934D01*
X155086652Y-114873948D01*
X155061666Y-114843503D01*
X155043098Y-114808764D01*
X155031665Y-114771077D01*
X155027200Y-114725739D01*
X155027200Y-113889061D01*
X155031665Y-113843723D01*
X155043098Y-113806036D01*
X155061666Y-113771297D01*
X155086652Y-113740852D01*
X155117097Y-113715866D01*
X155151836Y-113697298D01*
X155189523Y-113685865D01*
X155234861Y-113681400D01*
X156321539Y-113681400D01*
X156366877Y-113685865D01*
X156366877Y-113685865D01*
G37*
G36*
X128881986Y-110740946D02*
X128912661Y-110750251D01*
X128940932Y-110765363D01*
X128965706Y-110785694D01*
X128986037Y-110810468D01*
X129001149Y-110838739D01*
X129010454Y-110869414D01*
X129014200Y-110907450D01*
X129014200Y-113018950D01*
X129010454Y-113056986D01*
X129001149Y-113087661D01*
X128986037Y-113115932D01*
X128965706Y-113140706D01*
X128940932Y-113161037D01*
X128912661Y-113176149D01*
X128881986Y-113185454D01*
X128843950Y-113189200D01*
X126832450Y-113189200D01*
X126794414Y-113185454D01*
X126763739Y-113176149D01*
X126735468Y-113161037D01*
X126710694Y-113140706D01*
X126690363Y-113115932D01*
X126675251Y-113087661D01*
X126665946Y-113056986D01*
X126662200Y-113018950D01*
X126662200Y-110907450D01*
X126665946Y-110869414D01*
X126675251Y-110838739D01*
X126690363Y-110810468D01*
X126710694Y-110785694D01*
X126735468Y-110765363D01*
X126763739Y-110750251D01*
X126794414Y-110740946D01*
X126832450Y-110737200D01*
X128843950Y-110737200D01*
X128881986Y-110740946D01*
X128881986Y-110740946D01*
G37*
G36*
X123781986Y-110740946D02*
X123812661Y-110750251D01*
X123840932Y-110765363D01*
X123865706Y-110785694D01*
X123886037Y-110810468D01*
X123901149Y-110838739D01*
X123910454Y-110869414D01*
X123914200Y-110907450D01*
X123914200Y-113018950D01*
X123910454Y-113056986D01*
X123901149Y-113087661D01*
X123886037Y-113115932D01*
X123865706Y-113140706D01*
X123840932Y-113161037D01*
X123812661Y-113176149D01*
X123781986Y-113185454D01*
X123743950Y-113189200D01*
X121732450Y-113189200D01*
X121694414Y-113185454D01*
X121663739Y-113176149D01*
X121635468Y-113161037D01*
X121610694Y-113140706D01*
X121590363Y-113115932D01*
X121575251Y-113087661D01*
X121565946Y-113056986D01*
X121562200Y-113018950D01*
X121562200Y-110907450D01*
X121565946Y-110869414D01*
X121575251Y-110838739D01*
X121590363Y-110810468D01*
X121610694Y-110785694D01*
X121635468Y-110765363D01*
X121663739Y-110750251D01*
X121694414Y-110740946D01*
X121732450Y-110737200D01*
X123743950Y-110737200D01*
X123781986Y-110740946D01*
X123781986Y-110740946D01*
G37*
G36*
X153995200Y-109783200D02*
X153243200Y-109783200D01*
X153243200Y-107981200D01*
X153995200Y-107981200D01*
X153995200Y-109783200D01*
X153995200Y-109783200D01*
G37*
G36*
X152725200Y-109783200D02*
X151973200Y-109783200D01*
X151973200Y-107981200D01*
X152725200Y-107981200D01*
X152725200Y-109783200D01*
X152725200Y-109783200D01*
G37*
G36*
X156535200Y-109783200D02*
X155783200Y-109783200D01*
X155783200Y-107981200D01*
X156535200Y-107981200D01*
X156535200Y-109783200D01*
X156535200Y-109783200D01*
G37*
G36*
X155265200Y-109783200D02*
X154513200Y-109783200D01*
X154513200Y-107981200D01*
X155265200Y-107981200D01*
X155265200Y-109783200D01*
X155265200Y-109783200D01*
G37*
G36*
X129364600Y-108629600D02*
X127362600Y-108629600D01*
X127362600Y-107727600D01*
X129364600Y-107727600D01*
X129364600Y-108629600D01*
X129364600Y-108629600D01*
G37*
G36*
X126364600Y-107679600D02*
X124362600Y-107679600D01*
X124362600Y-106777600D01*
X126364600Y-106777600D01*
X126364600Y-107679600D01*
X126364600Y-107679600D01*
G37*
G36*
X129364600Y-106729600D02*
X127362600Y-106729600D01*
X127362600Y-105827600D01*
X129364600Y-105827600D01*
X129364600Y-106729600D01*
X129364600Y-106729600D01*
G37*
G36*
X150601077Y-104806465D02*
X150638764Y-104817898D01*
X150673503Y-104836466D01*
X150703948Y-104861452D01*
X150728934Y-104891897D01*
X150747502Y-104926636D01*
X150758935Y-104964323D01*
X150763400Y-105009661D01*
X150763400Y-105846339D01*
X150758935Y-105891677D01*
X150747502Y-105929364D01*
X150728934Y-105964103D01*
X150703948Y-105994548D01*
X150673503Y-106019534D01*
X150638764Y-106038102D01*
X150601077Y-106049535D01*
X150555739Y-106054000D01*
X149469061Y-106054000D01*
X149423723Y-106049535D01*
X149386036Y-106038102D01*
X149351297Y-106019534D01*
X149320852Y-105994548D01*
X149295866Y-105964103D01*
X149277298Y-105929364D01*
X149265865Y-105891677D01*
X149261400Y-105846339D01*
X149261400Y-105009661D01*
X149265865Y-104964323D01*
X149277298Y-104926636D01*
X149295866Y-104891897D01*
X149320852Y-104861452D01*
X149351297Y-104836466D01*
X149386036Y-104817898D01*
X149423723Y-104806465D01*
X149469061Y-104802000D01*
X150555739Y-104802000D01*
X150601077Y-104806465D01*
X150601077Y-104806465D01*
G37*
G36*
X128361677Y-103469665D02*
X128399364Y-103481098D01*
X128434103Y-103499666D01*
X128464548Y-103524652D01*
X128489534Y-103555097D01*
X128508102Y-103589836D01*
X128519535Y-103627523D01*
X128524000Y-103672861D01*
X128524000Y-104759539D01*
X128519535Y-104804877D01*
X128508102Y-104842564D01*
X128489534Y-104877303D01*
X128464548Y-104907748D01*
X128434103Y-104932734D01*
X128399364Y-104951302D01*
X128361677Y-104962735D01*
X128316339Y-104967200D01*
X127479661Y-104967200D01*
X127434323Y-104962735D01*
X127396636Y-104951302D01*
X127361897Y-104932734D01*
X127331452Y-104907748D01*
X127306466Y-104877303D01*
X127287898Y-104842564D01*
X127276465Y-104804877D01*
X127272000Y-104759539D01*
X127272000Y-103672861D01*
X127276465Y-103627523D01*
X127287898Y-103589836D01*
X127306466Y-103555097D01*
X127331452Y-103524652D01*
X127361897Y-103499666D01*
X127396636Y-103481098D01*
X127434323Y-103469665D01*
X127479661Y-103465200D01*
X128316339Y-103465200D01*
X128361677Y-103469665D01*
X128361677Y-103469665D01*
G37*
G36*
X126311677Y-103469665D02*
X126349364Y-103481098D01*
X126384103Y-103499666D01*
X126414548Y-103524652D01*
X126439534Y-103555097D01*
X126458102Y-103589836D01*
X126469535Y-103627523D01*
X126474000Y-103672861D01*
X126474000Y-104759539D01*
X126469535Y-104804877D01*
X126458102Y-104842564D01*
X126439534Y-104877303D01*
X126414548Y-104907748D01*
X126384103Y-104932734D01*
X126349364Y-104951302D01*
X126311677Y-104962735D01*
X126266339Y-104967200D01*
X125429661Y-104967200D01*
X125384323Y-104962735D01*
X125346636Y-104951302D01*
X125311897Y-104932734D01*
X125281452Y-104907748D01*
X125256466Y-104877303D01*
X125237898Y-104842564D01*
X125226465Y-104804877D01*
X125222000Y-104759539D01*
X125222000Y-103672861D01*
X125226465Y-103627523D01*
X125237898Y-103589836D01*
X125256466Y-103555097D01*
X125281452Y-103524652D01*
X125311897Y-103499666D01*
X125346636Y-103481098D01*
X125384323Y-103469665D01*
X125429661Y-103465200D01*
X126266339Y-103465200D01*
X126311677Y-103469665D01*
X126311677Y-103469665D01*
G37*
G36*
X122267800Y-104843400D02*
X121165800Y-104843400D01*
X121165800Y-103741400D01*
X122267800Y-103741400D01*
X122267800Y-104843400D01*
X122267800Y-104843400D01*
G37*
G36*
X150601077Y-102756465D02*
X150638764Y-102767898D01*
X150673503Y-102786466D01*
X150703948Y-102811452D01*
X150728934Y-102841897D01*
X150747502Y-102876636D01*
X150758935Y-102914323D01*
X150763400Y-102959661D01*
X150763400Y-103796339D01*
X150758935Y-103841677D01*
X150747502Y-103879364D01*
X150728934Y-103914103D01*
X150703948Y-103944548D01*
X150673503Y-103969534D01*
X150638764Y-103988102D01*
X150601077Y-103999535D01*
X150555739Y-104004000D01*
X149469061Y-104004000D01*
X149423723Y-103999535D01*
X149386036Y-103988102D01*
X149351297Y-103969534D01*
X149320852Y-103944548D01*
X149295866Y-103914103D01*
X149277298Y-103879364D01*
X149265865Y-103841677D01*
X149261400Y-103796339D01*
X149261400Y-102959661D01*
X149265865Y-102914323D01*
X149277298Y-102876636D01*
X149295866Y-102841897D01*
X149320852Y-102811452D01*
X149351297Y-102786466D01*
X149386036Y-102767898D01*
X149423723Y-102756465D01*
X149469061Y-102752000D01*
X150555739Y-102752000D01*
X150601077Y-102756465D01*
X150601077Y-102756465D01*
G37*
G36*
X129317000Y-102827000D02*
X126715000Y-102827000D01*
X126715000Y-97325000D01*
X129317000Y-97325000D01*
X129317000Y-102827000D01*
X129317000Y-102827000D01*
G37*
G36*
X125617000Y-102827000D02*
X123015000Y-102827000D01*
X123015000Y-97325000D01*
X125617000Y-97325000D01*
X125617000Y-102827000D01*
X125617000Y-102827000D01*
G37*
G36*
X156535200Y-102483200D02*
X155783200Y-102483200D01*
X155783200Y-100681200D01*
X156535200Y-100681200D01*
X156535200Y-102483200D01*
X156535200Y-102483200D01*
G37*
G36*
X152725200Y-102483200D02*
X151973200Y-102483200D01*
X151973200Y-100681200D01*
X152725200Y-100681200D01*
X152725200Y-102483200D01*
X152725200Y-102483200D01*
G37*
G36*
X153995200Y-102483200D02*
X153243200Y-102483200D01*
X153243200Y-100681200D01*
X153995200Y-100681200D01*
X153995200Y-102483200D01*
X153995200Y-102483200D01*
G37*
G36*
X155265200Y-102483200D02*
X154513200Y-102483200D01*
X154513200Y-100681200D01*
X155265200Y-100681200D01*
X155265200Y-102483200D01*
X155265200Y-102483200D01*
G37*
G36*
X142241800Y-72745800D02*
X137059800Y-72745800D01*
X137059800Y-67563800D01*
X142241800Y-67563800D01*
X142241800Y-72745800D01*
X142241800Y-72745800D01*
G37*
G36*
X143273600Y-57084600D02*
X142171600Y-57084600D01*
X142171600Y-53832600D01*
X143273600Y-53832600D01*
X143273600Y-57084600D01*
X143273600Y-57084600D01*
G37*
G36*
X140733600Y-57084600D02*
X139631600Y-57084600D01*
X139631600Y-53832600D01*
X140733600Y-53832600D01*
X140733600Y-57084600D01*
X140733600Y-57084600D01*
G37*
G36*
X138193600Y-57084600D02*
X137091600Y-57084600D01*
X137091600Y-53832600D01*
X138193600Y-53832600D01*
X138193600Y-57084600D01*
X138193600Y-57084600D01*
G37*
G36*
X143273600Y-52034600D02*
X142171600Y-52034600D01*
X142171600Y-48782600D01*
X143273600Y-48782600D01*
X143273600Y-52034600D01*
X143273600Y-52034600D01*
G37*
G36*
X140733600Y-52034600D02*
X139631600Y-52034600D01*
X139631600Y-48782600D01*
X140733600Y-48782600D01*
X140733600Y-52034600D01*
X140733600Y-52034600D01*
G37*
G36*
X138193600Y-52034600D02*
X137091600Y-52034600D01*
X137091600Y-48782600D01*
X138193600Y-48782600D01*
X138193600Y-52034600D01*
X138193600Y-52034600D01*
G37*
G36*
X140029485Y-43643496D02*
X140029487Y-43643497D01*
X140029488Y-43643497D01*
X140266255Y-43741569D01*
X140479342Y-43883949D01*
X140660551Y-44065158D01*
X140802931Y-44278245D01*
X140901004Y-44515015D01*
X140951000Y-44766361D01*
X140951000Y-45022639D01*
X140901004Y-45273985D01*
X140802931Y-45510755D01*
X140660551Y-45723842D01*
X140479342Y-45905051D01*
X140479339Y-45905053D01*
X140266255Y-46047431D01*
X140029488Y-46145503D01*
X140029487Y-46145503D01*
X140029485Y-46145504D01*
X139778139Y-46195500D01*
X139521861Y-46195500D01*
X139270515Y-46145504D01*
X139270513Y-46145503D01*
X139270512Y-46145503D01*
X139033745Y-46047431D01*
X138820661Y-45905053D01*
X138820658Y-45905051D01*
X138639449Y-45723842D01*
X138497069Y-45510755D01*
X138398996Y-45273985D01*
X138349000Y-45022639D01*
X138349000Y-44766361D01*
X138398996Y-44515015D01*
X138497069Y-44278245D01*
X138639449Y-44065158D01*
X138820658Y-43883949D01*
X139033745Y-43741569D01*
X139270512Y-43643497D01*
X139270513Y-43643497D01*
X139270515Y-43643496D01*
X139521861Y-43593500D01*
X139778139Y-43593500D01*
X140029485Y-43643496D01*
X140029485Y-43643496D01*
G37*
M02*
