G04 #@! TF.GenerationSoftware,KiCad,Pcbnew,(5.0.1)-4*
G04 #@! TF.CreationDate,2019-03-02T12:17:37+01:00*
G04 #@! TF.ProjectId,Simple_Christamas_Ornament,53696D706C655F436872697374616D61,rev?*
G04 #@! TF.SameCoordinates,Original*
G04 #@! TF.FileFunction,Legend,Bot*
G04 #@! TF.FilePolarity,Positive*
%FSLAX46Y46*%
G04 Gerber Fmt 4.6, Leading zero omitted, Abs format (unit mm)*
G04 Created by KiCad (PCBNEW (5.0.1)-4) date 02/03/2019 12:17:37*
%MOMM*%
%LPD*%
G01*
G04 APERTURE LIST*
%ADD10C,0.120000*%
%ADD11C,0.010000*%
%ADD12C,0.150000*%
G04 APERTURE END LIST*
D10*
G04 #@! TO.C,D2*
X134841000Y-97961000D02*
X127541000Y-97961000D01*
X134841000Y-103461000D02*
X127541000Y-103461000D01*
X127541000Y-103461000D02*
X127541000Y-102311000D01*
G04 #@! TO.C,D3*
X121572000Y-116986500D02*
X121572000Y-115836500D01*
X128872000Y-116986500D02*
X121572000Y-116986500D01*
X128872000Y-111486500D02*
X121572000Y-111486500D01*
G04 #@! TO.C,D4*
X134333000Y-125647000D02*
X127033000Y-125647000D01*
X134333000Y-131147000D02*
X127033000Y-131147000D01*
X127033000Y-131147000D02*
X127033000Y-129997000D01*
D11*
G04 #@! TO.C,G\002A\002A\002A*
G36*
X124123944Y-94049381D02*
X121623818Y-96015146D01*
X119297278Y-98404781D01*
X117232387Y-101114303D01*
X115517209Y-104039727D01*
X115314384Y-104451492D01*
X114414319Y-106452692D01*
X113763354Y-108257175D01*
X113325737Y-110027174D01*
X113065712Y-111924922D01*
X112947528Y-114112652D01*
X112930919Y-115266537D01*
X112934866Y-116975058D01*
X112976558Y-118292143D01*
X113069452Y-119360542D01*
X113227005Y-120323005D01*
X113462673Y-121322281D01*
X113523221Y-121549695D01*
X114764702Y-125150274D01*
X116471774Y-128488656D01*
X118639382Y-131556102D01*
X120491986Y-133601594D01*
X123343556Y-136089673D01*
X126470614Y-138122644D01*
X129885684Y-139707607D01*
X133023593Y-140707703D01*
X135208271Y-141145204D01*
X137655115Y-141420445D01*
X140174011Y-141525497D01*
X142574840Y-141452432D01*
X144667487Y-141193321D01*
X144667632Y-141193294D01*
X148482451Y-140226611D01*
X151992583Y-138824009D01*
X155215259Y-136976548D01*
X158167714Y-134675288D01*
X159301046Y-133601594D01*
X161798805Y-130735473D01*
X163839378Y-127592714D01*
X165416805Y-124183630D01*
X166267891Y-121549695D01*
X166656645Y-119560547D01*
X166871735Y-117247784D01*
X166913240Y-114793516D01*
X166781239Y-112379854D01*
X166475810Y-110188908D01*
X166262579Y-109250748D01*
X165056562Y-105731975D01*
X163373506Y-102405210D01*
X161254849Y-99331614D01*
X158742034Y-96572349D01*
X156234383Y-94450372D01*
X155537266Y-93956607D01*
X154967770Y-93665861D01*
X154338666Y-93524621D01*
X153462730Y-93479372D01*
X152825436Y-93476011D01*
X151842462Y-93499492D01*
X151106401Y-93561813D01*
X150744697Y-93650793D01*
X150727694Y-93676537D01*
X150781644Y-93978445D01*
X150933173Y-94738642D01*
X151168912Y-95892316D01*
X151475493Y-97374657D01*
X151839546Y-99120853D01*
X152247703Y-101066092D01*
X152449829Y-102025279D01*
X152870736Y-104034073D01*
X153249289Y-105867997D01*
X153572828Y-107463528D01*
X153828692Y-108757138D01*
X154004221Y-109685302D01*
X154086754Y-110184494D01*
X154089637Y-110253065D01*
X153808883Y-110292033D01*
X153089781Y-110345785D01*
X152028314Y-110408345D01*
X150720467Y-110473740D01*
X150094871Y-110501734D01*
X148575424Y-110563828D01*
X147509889Y-110592295D01*
X146818102Y-110580161D01*
X146419904Y-110520451D01*
X146235131Y-110406192D01*
X146183624Y-110230409D01*
X146182188Y-110161317D01*
X146208456Y-109774200D01*
X146281557Y-108925573D01*
X146394897Y-107685986D01*
X146541888Y-106125990D01*
X146715936Y-104316136D01*
X146910451Y-102326975D01*
X146977692Y-101646427D01*
X147174280Y-99640504D01*
X147349170Y-97814595D01*
X147496404Y-96234272D01*
X147610025Y-94965105D01*
X147684075Y-94072665D01*
X147712597Y-93622522D01*
X147710441Y-93581221D01*
X147439144Y-93564096D01*
X146689133Y-93539934D01*
X145516365Y-93509960D01*
X143976799Y-93475400D01*
X142126393Y-93437481D01*
X140021106Y-93397428D01*
X137716897Y-93356467D01*
X136554410Y-93336806D01*
X125458621Y-93152225D01*
X124123944Y-94049381D01*
X124123944Y-94049381D01*
G37*
X124123944Y-94049381D02*
X121623818Y-96015146D01*
X119297278Y-98404781D01*
X117232387Y-101114303D01*
X115517209Y-104039727D01*
X115314384Y-104451492D01*
X114414319Y-106452692D01*
X113763354Y-108257175D01*
X113325737Y-110027174D01*
X113065712Y-111924922D01*
X112947528Y-114112652D01*
X112930919Y-115266537D01*
X112934866Y-116975058D01*
X112976558Y-118292143D01*
X113069452Y-119360542D01*
X113227005Y-120323005D01*
X113462673Y-121322281D01*
X113523221Y-121549695D01*
X114764702Y-125150274D01*
X116471774Y-128488656D01*
X118639382Y-131556102D01*
X120491986Y-133601594D01*
X123343556Y-136089673D01*
X126470614Y-138122644D01*
X129885684Y-139707607D01*
X133023593Y-140707703D01*
X135208271Y-141145204D01*
X137655115Y-141420445D01*
X140174011Y-141525497D01*
X142574840Y-141452432D01*
X144667487Y-141193321D01*
X144667632Y-141193294D01*
X148482451Y-140226611D01*
X151992583Y-138824009D01*
X155215259Y-136976548D01*
X158167714Y-134675288D01*
X159301046Y-133601594D01*
X161798805Y-130735473D01*
X163839378Y-127592714D01*
X165416805Y-124183630D01*
X166267891Y-121549695D01*
X166656645Y-119560547D01*
X166871735Y-117247784D01*
X166913240Y-114793516D01*
X166781239Y-112379854D01*
X166475810Y-110188908D01*
X166262579Y-109250748D01*
X165056562Y-105731975D01*
X163373506Y-102405210D01*
X161254849Y-99331614D01*
X158742034Y-96572349D01*
X156234383Y-94450372D01*
X155537266Y-93956607D01*
X154967770Y-93665861D01*
X154338666Y-93524621D01*
X153462730Y-93479372D01*
X152825436Y-93476011D01*
X151842462Y-93499492D01*
X151106401Y-93561813D01*
X150744697Y-93650793D01*
X150727694Y-93676537D01*
X150781644Y-93978445D01*
X150933173Y-94738642D01*
X151168912Y-95892316D01*
X151475493Y-97374657D01*
X151839546Y-99120853D01*
X152247703Y-101066092D01*
X152449829Y-102025279D01*
X152870736Y-104034073D01*
X153249289Y-105867997D01*
X153572828Y-107463528D01*
X153828692Y-108757138D01*
X154004221Y-109685302D01*
X154086754Y-110184494D01*
X154089637Y-110253065D01*
X153808883Y-110292033D01*
X153089781Y-110345785D01*
X152028314Y-110408345D01*
X150720467Y-110473740D01*
X150094871Y-110501734D01*
X148575424Y-110563828D01*
X147509889Y-110592295D01*
X146818102Y-110580161D01*
X146419904Y-110520451D01*
X146235131Y-110406192D01*
X146183624Y-110230409D01*
X146182188Y-110161317D01*
X146208456Y-109774200D01*
X146281557Y-108925573D01*
X146394897Y-107685986D01*
X146541888Y-106125990D01*
X146715936Y-104316136D01*
X146910451Y-102326975D01*
X146977692Y-101646427D01*
X147174280Y-99640504D01*
X147349170Y-97814595D01*
X147496404Y-96234272D01*
X147610025Y-94965105D01*
X147684075Y-94072665D01*
X147712597Y-93622522D01*
X147710441Y-93581221D01*
X147439144Y-93564096D01*
X146689133Y-93539934D01*
X145516365Y-93509960D01*
X143976799Y-93475400D01*
X142126393Y-93437481D01*
X140021106Y-93397428D01*
X137716897Y-93356467D01*
X136554410Y-93336806D01*
X125458621Y-93152225D01*
X124123944Y-94049381D01*
G36*
X127472165Y-60838249D02*
X126332119Y-61921100D01*
X125150076Y-63326390D01*
X124065339Y-64873495D01*
X123251397Y-66311011D01*
X122473261Y-68037163D01*
X121948056Y-69574440D01*
X121633491Y-71113657D01*
X121487276Y-72845625D01*
X121462643Y-74381895D01*
X121480451Y-75836765D01*
X121541601Y-76930633D01*
X121672119Y-77836955D01*
X121898031Y-78729186D01*
X122245364Y-79780781D01*
X122293074Y-79916391D01*
X122772141Y-81149568D01*
X123317366Y-82365314D01*
X123829948Y-83347453D01*
X123954516Y-83551694D01*
X124794646Y-84860923D01*
X134084144Y-85037524D01*
X136551571Y-85086370D01*
X139102512Y-85140353D01*
X141622904Y-85196816D01*
X143998684Y-85253101D01*
X146115791Y-85306550D01*
X147860160Y-85354505D01*
X148453642Y-85372351D01*
X153533642Y-85530576D01*
X154570878Y-83891934D01*
X155883334Y-81367395D01*
X156785545Y-78642850D01*
X157267068Y-75815923D01*
X157317458Y-72984238D01*
X156926270Y-70245420D01*
X156596642Y-69192163D01*
X139433157Y-69192163D01*
X139076650Y-69817534D01*
X138442959Y-70204620D01*
X137859322Y-70064638D01*
X137637435Y-69851348D01*
X137379912Y-69230446D01*
X137489058Y-68611995D01*
X137650597Y-68453586D01*
X130137701Y-68453586D01*
X129983905Y-68964516D01*
X129960660Y-68989965D01*
X129472786Y-69164252D01*
X128823320Y-69092014D01*
X128304396Y-68809706D01*
X128277975Y-68779989D01*
X128068703Y-68204079D01*
X128250463Y-67644789D01*
X128691984Y-67233389D01*
X129261996Y-67101148D01*
X129750683Y-67307280D01*
X130047809Y-67803796D01*
X130137701Y-68453586D01*
X137650597Y-68453586D01*
X137908421Y-68200758D01*
X138107833Y-68145055D01*
X138872522Y-68221895D01*
X139340004Y-68615310D01*
X139433157Y-69192163D01*
X156596642Y-69192163D01*
X156259005Y-68113315D01*
X155672590Y-66657368D01*
X142043744Y-63369250D01*
X128414898Y-60081133D01*
X127472165Y-60838249D01*
X127472165Y-60838249D01*
G37*
X127472165Y-60838249D02*
X126332119Y-61921100D01*
X125150076Y-63326390D01*
X124065339Y-64873495D01*
X123251397Y-66311011D01*
X122473261Y-68037163D01*
X121948056Y-69574440D01*
X121633491Y-71113657D01*
X121487276Y-72845625D01*
X121462643Y-74381895D01*
X121480451Y-75836765D01*
X121541601Y-76930633D01*
X121672119Y-77836955D01*
X121898031Y-78729186D01*
X122245364Y-79780781D01*
X122293074Y-79916391D01*
X122772141Y-81149568D01*
X123317366Y-82365314D01*
X123829948Y-83347453D01*
X123954516Y-83551694D01*
X124794646Y-84860923D01*
X134084144Y-85037524D01*
X136551571Y-85086370D01*
X139102512Y-85140353D01*
X141622904Y-85196816D01*
X143998684Y-85253101D01*
X146115791Y-85306550D01*
X147860160Y-85354505D01*
X148453642Y-85372351D01*
X153533642Y-85530576D01*
X154570878Y-83891934D01*
X155883334Y-81367395D01*
X156785545Y-78642850D01*
X157267068Y-75815923D01*
X157317458Y-72984238D01*
X156926270Y-70245420D01*
X156596642Y-69192163D01*
X139433157Y-69192163D01*
X139076650Y-69817534D01*
X138442959Y-70204620D01*
X137859322Y-70064638D01*
X137637435Y-69851348D01*
X137379912Y-69230446D01*
X137489058Y-68611995D01*
X137650597Y-68453586D01*
X130137701Y-68453586D01*
X129983905Y-68964516D01*
X129960660Y-68989965D01*
X129472786Y-69164252D01*
X128823320Y-69092014D01*
X128304396Y-68809706D01*
X128277975Y-68779989D01*
X128068703Y-68204079D01*
X128250463Y-67644789D01*
X128691984Y-67233389D01*
X129261996Y-67101148D01*
X129750683Y-67307280D01*
X130047809Y-67803796D01*
X130137701Y-68453586D01*
X137650597Y-68453586D01*
X137908421Y-68200758D01*
X138107833Y-68145055D01*
X138872522Y-68221895D01*
X139340004Y-68615310D01*
X139433157Y-69192163D01*
X156596642Y-69192163D01*
X156259005Y-68113315D01*
X155672590Y-66657368D01*
X142043744Y-63369250D01*
X128414898Y-60081133D01*
X127472165Y-60838249D01*
D10*
G04 #@! TO.C,SW1*
X142078200Y-140678800D02*
X137578200Y-140678800D01*
X143328200Y-136678800D02*
X143328200Y-138178800D01*
X137578200Y-134178800D02*
X142078200Y-134178800D01*
X136328200Y-138178800D02*
X136328200Y-136678800D01*
G04 #@! TO.C,D2*
D12*
X131929095Y-97663380D02*
X131929095Y-96663380D01*
X131691000Y-96663380D01*
X131548142Y-96711000D01*
X131452904Y-96806238D01*
X131405285Y-96901476D01*
X131357666Y-97091952D01*
X131357666Y-97234809D01*
X131405285Y-97425285D01*
X131452904Y-97520523D01*
X131548142Y-97615761D01*
X131691000Y-97663380D01*
X131929095Y-97663380D01*
X130976714Y-96758619D02*
X130929095Y-96711000D01*
X130833857Y-96663380D01*
X130595761Y-96663380D01*
X130500523Y-96711000D01*
X130452904Y-96758619D01*
X130405285Y-96853857D01*
X130405285Y-96949095D01*
X130452904Y-97091952D01*
X131024333Y-97663380D01*
X130405285Y-97663380D01*
X135055285Y-99563380D02*
X135626714Y-99563380D01*
X135341000Y-99563380D02*
X135341000Y-98563380D01*
X135436238Y-98706238D01*
X135531476Y-98801476D01*
X135626714Y-98849095D01*
G04 #@! TO.C,D3*
X125960095Y-111188880D02*
X125960095Y-110188880D01*
X125722000Y-110188880D01*
X125579142Y-110236500D01*
X125483904Y-110331738D01*
X125436285Y-110426976D01*
X125388666Y-110617452D01*
X125388666Y-110760309D01*
X125436285Y-110950785D01*
X125483904Y-111046023D01*
X125579142Y-111141261D01*
X125722000Y-111188880D01*
X125960095Y-111188880D01*
X125055333Y-110188880D02*
X124436285Y-110188880D01*
X124769619Y-110569833D01*
X124626761Y-110569833D01*
X124531523Y-110617452D01*
X124483904Y-110665071D01*
X124436285Y-110760309D01*
X124436285Y-110998404D01*
X124483904Y-111093642D01*
X124531523Y-111141261D01*
X124626761Y-111188880D01*
X124912476Y-111188880D01*
X125007714Y-111141261D01*
X125055333Y-111093642D01*
X129086285Y-113088880D02*
X129657714Y-113088880D01*
X129372000Y-113088880D02*
X129372000Y-112088880D01*
X129467238Y-112231738D01*
X129562476Y-112326976D01*
X129657714Y-112374595D01*
G04 #@! TO.C,SW1*
X141161533Y-133583561D02*
X141018676Y-133631180D01*
X140780580Y-133631180D01*
X140685342Y-133583561D01*
X140637723Y-133535942D01*
X140590104Y-133440704D01*
X140590104Y-133345466D01*
X140637723Y-133250228D01*
X140685342Y-133202609D01*
X140780580Y-133154990D01*
X140971057Y-133107371D01*
X141066295Y-133059752D01*
X141113914Y-133012133D01*
X141161533Y-132916895D01*
X141161533Y-132821657D01*
X141113914Y-132726419D01*
X141066295Y-132678800D01*
X140971057Y-132631180D01*
X140732961Y-132631180D01*
X140590104Y-132678800D01*
X140256771Y-132631180D02*
X140018676Y-133631180D01*
X139828200Y-132916895D01*
X139637723Y-133631180D01*
X139399628Y-132631180D01*
X138494866Y-133631180D02*
X139066295Y-133631180D01*
X138780580Y-133631180D02*
X138780580Y-132631180D01*
X138875819Y-132774038D01*
X138971057Y-132869276D01*
X139066295Y-132916895D01*
G04 #@! TD*
M02*
